<svg width="699" height="135" viewBox="0 0 699 135" fill="none" xmlns="http://www.w3.org/2000/svg">
<path d="M0.152344 134.901V86.4299C4.10795 86.7677 10.8342 86.4299 18.4561 86.4299C25.9813 86.4299 38.3578 84.8603 49.6155 82.7014C58.1956 81.056 74.1846 77.965 81.0499 76.2647L76.0695 73.1708L98.4059 75.2082L81.0499 90.6777L83.1628 84.0372C75.4658 85.6721 59.8376 89.2122 53.8914 90.2498C48.3671 91.2138 34.5806 92.9894 28.6265 93.6032V105.992H87.3138V134.901H0.152344Z" fill="black"/>
<path d="M0.152344 0.841812V59.884C0.152344 59.884 25.3789 60.2206 29.1229 59.884C32.8668 59.5473 41.92 58.4701 48.1812 56.8544C54.4423 55.2386 62.8835 51.4559 66.2076 49.5624L67.4947 55.0871L72.544 38.5507L54.3665 40.9491L61.5618 42.9688C58.6584 44.0628 51.9783 47.248 45.8742 49.1542C39.3639 51.1872 32.0674 51.2177 29.1229 51.1872V28.449H87.4048V0.841812H0.152344Z" fill="black"/>
<path d="M44.2866 66.4211C30.2189 69.1051 9.0022 69.6407 0.152344 69.573V77.5496C0.152344 77.5496 15.558 77.943 25.4294 77.2958C32.2117 76.8511 40.7536 75.4262 44.7727 74.8903C56.1742 73.3701 74.7952 67.3053 85.8187 61.7936C94.016 57.6949 101.244 52.3457 105.139 49.5306L104.445 59.2484L112.774 35.4166L88.7109 44.3246L99.5856 43.6305C95.4208 46.2913 86.1426 52.0757 82.348 53.9267C77.6048 56.2405 61.8712 63.0661 44.2866 66.4211Z" fill="#039EFF"/>
<path d="M161.536 0.841827L161.536 134.901" stroke="black" stroke-width="3.52905"/>
<path d="M221.897 74.8715V22.5139H261.587V33.2051H234.859V42.5782H257.779V52.6836H234.859V63.8874H262.026V74.8715H221.897ZM268.465 74.8715L281.499 55.1733L269.71 37.3791H283.33L288.895 47.0451H289.042L294.314 37.3791H306.836L295.706 55.0269L308.447 74.8715H294.607L288.456 63.6677H288.31L281.499 74.8715H268.465ZM328.88 75.3109C325.073 75.3109 322.119 74.5542 320.02 73.0408C317.97 71.4786 316.944 68.7936 316.944 64.9858V44.8483H311.965V37.3791H316.944V25.5162H328.587V37.3791H335.398V44.8483H328.587V62.4228C328.587 63.7898 328.929 64.7417 329.613 65.2787C330.345 65.8157 331.395 66.0842 332.761 66.0842C333.152 66.0842 333.665 66.0842 334.299 66.0842C334.934 66.0354 335.3 66.011 335.398 66.011V74.7251C334.031 75.1156 331.858 75.3109 328.88 75.3109ZM343.349 74.8715V37.3791H354.773V43.2373H354.992C357.531 38.9413 360.948 36.7933 365.244 36.7933C366.367 36.7933 367.148 36.8909 367.587 37.0862V47.338H367.294C363.584 46.801 360.655 47.46 358.507 49.3151C356.359 51.1214 355.285 54.0261 355.285 58.0292V74.8715H343.349ZM385.028 75.8235C381.171 75.8235 378.071 74.8227 375.728 72.8211C373.384 70.8196 372.213 68.0125 372.213 64.4C372.213 60.5922 373.482 57.8339 376.021 56.1253C378.559 54.3678 382.074 53.1962 386.565 52.6104C390.227 52.171 392.716 51.6828 394.034 51.1458C395.401 50.56 396.085 49.6569 396.085 48.4364C396.085 45.7514 394.376 44.4089 390.959 44.4089C387.298 44.4089 385.272 46.0199 384.881 49.2419H373.897C374.043 45.5317 375.557 42.4562 378.437 40.0153C381.366 37.5744 385.516 36.3539 390.886 36.3539C396.256 36.3539 400.308 37.3791 403.041 39.4294C406.215 41.7239 407.801 45.2876 407.801 50.1206V69.0133C407.801 71.9912 408.241 73.7731 409.119 74.3589V74.8715H397.549C397.061 74.1881 396.646 72.7967 396.305 70.6975H396.158C393.766 74.1148 390.056 75.8235 385.028 75.8235ZM388.835 68.2078C391.081 68.2078 392.887 67.5976 394.254 66.3771C395.67 65.1079 396.378 63.4724 396.378 61.4709V57.004C395.206 57.5898 393.156 58.2489 390.227 58.9812C387.835 59.5182 386.15 60.1528 385.174 60.8851C384.198 61.6173 383.709 62.6669 383.709 64.0339C383.709 66.8165 385.418 68.2078 388.835 68.2078Z" fill="black"/>
<path d="M428.745 74.8715L414.393 22.5139H427.501L432.773 44.4821L435.189 57.4434H435.336C436.263 52.6592 437.118 48.5096 437.899 44.9947L442.805 22.5139H454.814L459.721 44.8483L462.21 57.4434H462.357C463.333 52.171 464.212 47.8018 464.993 44.3357L470.192 22.5139H483.227L468.874 74.8715H456.206L450.714 49.7545L448.883 40.0153H448.736C448.151 43.7255 447.565 46.9719 446.979 49.7545L441.487 74.8715H428.745ZM503.72 75.9699C497.667 75.9699 492.809 74.1148 489.148 70.4046C485.535 66.6456 483.729 61.8614 483.729 56.0521C483.729 50.3891 485.511 45.6782 489.074 41.9192C492.687 38.1602 497.325 36.2807 502.988 36.2807C508.114 36.2807 512.385 37.8429 515.802 40.9672C520.294 45.068 522.491 51.1458 522.393 59.2008H495.445C495.836 61.7882 496.739 63.8142 498.155 65.2787C499.57 66.6944 501.474 67.4023 503.866 67.4023C506.942 67.4023 509.017 66.1574 510.091 63.6677H521.734C520.855 67.2803 518.756 70.2338 515.436 72.5282C512.166 74.8227 508.26 75.9699 503.72 75.9699ZM495.518 52.0978H510.31C510.115 49.8521 509.358 48.0703 508.04 46.7522C506.771 45.4341 505.16 44.775 503.207 44.775C498.96 44.775 496.397 47.216 495.518 52.0978ZM541.108 75.8235C537.251 75.8235 534.151 74.8227 531.808 72.8211C529.465 70.8196 528.293 68.0125 528.293 64.4C528.293 60.5922 529.562 57.8339 532.101 56.1253C534.639 54.3678 538.154 53.1962 542.645 52.6104C546.307 52.171 548.797 51.6828 550.115 51.1458C551.482 50.56 552.165 49.6569 552.165 48.4364C552.165 45.7514 550.456 44.4089 547.039 44.4089C543.378 44.4089 541.352 46.0199 540.961 49.2419H529.977C530.124 45.5317 531.637 42.4562 534.517 40.0153C537.446 37.5744 541.596 36.3539 546.966 36.3539C552.336 36.3539 556.388 37.3791 559.122 39.4294C562.295 41.7239 563.881 45.2876 563.881 50.1206V69.0133C563.881 71.9912 564.321 73.7731 565.2 74.3589V74.8715H553.63C553.141 74.1881 552.726 72.7967 552.385 70.6975H552.238C549.846 74.1148 546.136 75.8235 541.108 75.8235ZM544.916 68.2078C547.161 68.2078 548.967 67.5976 550.334 66.3771C551.75 65.1079 552.458 63.4724 552.458 61.4709V57.004C551.286 57.5898 549.236 58.2489 546.307 58.9812C543.915 59.5182 542.231 60.1528 541.254 60.8851C540.278 61.6173 539.79 62.6669 539.79 64.0339C539.79 66.8165 541.498 68.2078 544.916 68.2078ZM573.402 74.8715V22.5139H585.485V74.8715H573.402ZM609.805 75.3109C605.997 75.3109 603.043 74.5542 600.944 73.0408C598.894 71.4786 597.869 68.7936 597.869 64.9858V44.8483H592.889V37.3791H597.869V25.5162H609.512V37.3791H616.322V44.8483H609.512V62.4228C609.512 63.7898 609.854 64.7417 610.537 65.2787C611.269 65.8157 612.319 66.0842 613.686 66.0842C614.076 66.0842 614.589 66.0842 615.224 66.0842C615.858 66.0354 616.224 66.011 616.322 66.011V74.7251C614.955 75.1156 612.783 75.3109 609.805 75.3109ZM624.273 74.8715V22.5139H636.209V41.9924H636.429C639.309 38.1846 643.02 36.2807 647.56 36.2807C651.612 36.2807 654.785 37.5988 657.079 40.2349C659.423 42.8223 660.594 46.2396 660.594 50.4868V74.8715H648.658V52.9033C648.658 50.8529 648.146 49.2419 647.12 48.0703C646.144 46.8498 644.704 46.2396 642.8 46.2396C640.847 46.2396 639.261 46.9719 638.04 48.4364C636.82 49.901 636.209 51.8049 636.209 54.1482V74.8715H624.273Z" fill="#039EFF"/>
<path d="M221.091 119.872V100.854H222.873V119.872H221.091ZM253.518 119.872V100.854H255.459L264.21 114.206C264.493 114.632 264.795 115.111 265.114 115.643C265.433 116.157 265.682 116.573 265.859 116.893L266.098 117.345H266.151V100.854H267.854V119.872H265.992L257.268 106.679L255.273 103.461H255.22V119.872H253.518ZM303.707 119.872L296.898 100.854H298.76L303.68 114.898L304.691 118.036H304.744C305.152 116.671 305.498 115.598 305.781 114.818L310.729 100.854H312.537L305.648 119.872H303.707ZM341.569 119.872V100.854H354.495V102.424H343.351V109.259H353.564V110.802H343.351V118.222H354.788V119.872H341.569ZM390.931 120.217C388.537 120.217 386.684 119.623 385.372 118.435C384.06 117.23 383.35 115.651 383.244 113.701H385.026C385.115 115.297 385.673 116.538 386.702 117.425C387.748 118.293 389.166 118.728 390.957 118.728C392.394 118.728 393.564 118.382 394.468 117.691C395.372 116.981 395.825 115.997 395.825 114.738C395.825 113.479 395.399 112.584 394.548 112.052C393.715 111.52 392.19 111.032 389.973 110.589C387.987 110.199 386.489 109.64 385.478 108.913C384.485 108.186 383.989 107.052 383.989 105.509C383.989 104.002 384.574 102.787 385.744 101.865C386.914 100.943 388.448 100.482 390.346 100.482C392.385 100.482 393.963 100.987 395.08 101.998C396.215 102.991 396.871 104.339 397.048 106.041H395.319C395.16 104.729 394.637 103.727 393.75 103.035C392.881 102.326 391.755 101.971 390.372 101.971C388.936 101.971 387.801 102.291 386.968 102.929C386.134 103.55 385.718 104.392 385.718 105.456C385.718 106.52 386.108 107.3 386.888 107.796C387.686 108.275 389.016 108.692 390.877 109.046C391.746 109.206 392.464 109.366 393.032 109.525C393.599 109.667 394.202 109.889 394.84 110.19C395.479 110.474 395.975 110.802 396.33 111.174C396.702 111.547 397.013 112.025 397.261 112.61C397.509 113.196 397.633 113.878 397.633 114.658C397.633 116.343 397.013 117.691 395.771 118.701C394.548 119.712 392.934 120.217 390.931 120.217ZM431.561 119.872V102.45H425.124V100.854H439.753V102.45H433.343V119.872H431.561ZM469.087 119.872V100.854H471.507L478.077 117.451H478.13L484.54 100.854H487.04V119.872H485.311V103.301H485.258C484.921 104.312 484.62 105.172 484.354 105.881L478.848 119.872H477.279L471.72 105.881L470.789 103.301H470.736V119.872H469.087ZM517.567 119.872V100.854H530.493V102.424H519.349V109.259H529.562V110.802H519.349V118.222H530.786V119.872H517.567ZM560.593 119.872V100.854H562.534L571.285 114.206C571.568 114.632 571.87 115.111 572.189 115.643C572.508 116.157 572.756 116.573 572.934 116.893L573.173 117.345H573.226V100.854H574.929V119.872H573.067L564.343 106.679L562.348 103.461H562.295V119.872H560.593ZM610.702 119.872V102.45H604.265V100.854H618.894V102.45H612.484V119.872H610.702ZM654.305 120.217C651.911 120.217 650.058 119.623 648.746 118.435C647.434 117.23 646.724 115.651 646.618 113.701H648.4C648.489 115.297 649.047 116.538 650.076 117.425C651.122 118.293 652.54 118.728 654.331 118.728C655.768 118.728 656.938 118.382 657.842 117.691C658.747 116.981 659.199 115.997 659.199 114.738C659.199 113.479 658.773 112.584 657.922 112.052C657.089 111.52 655.564 111.032 653.347 110.589C651.361 110.199 649.863 109.64 648.852 108.913C647.859 108.186 647.363 107.052 647.363 105.509C647.363 104.002 647.948 102.787 649.118 101.865C650.289 100.943 651.822 100.482 653.72 100.482C655.759 100.482 657.337 100.987 658.454 101.998C659.589 102.991 660.245 104.339 660.422 106.041H658.693C658.534 104.729 658.011 103.727 657.124 103.035C656.255 102.326 655.129 101.971 653.746 101.971C652.31 101.971 651.175 102.291 650.342 102.929C649.508 103.55 649.092 104.392 649.092 105.456C649.092 106.52 649.482 107.3 650.262 107.796C651.06 108.275 652.39 108.692 654.252 109.046C655.12 109.206 655.839 109.366 656.406 109.525C656.973 109.667 657.576 109.889 658.215 110.19C658.853 110.474 659.349 110.802 659.704 111.174C660.076 111.547 660.387 112.025 660.635 112.61C660.883 113.196 661.007 113.878 661.007 114.658C661.007 116.343 660.387 117.691 659.145 118.701C657.922 119.712 656.308 120.217 654.305 120.217Z" fill="black"/>
</svg>
