<svg width="1514" height="852" fill="none" xmlns="http://www.w3.org/2000/svg"><path d="M758 588c89.47 0 162-72.53 162-162s-72.53-162-162-162-162 72.53-162 162 72.53 162 162 162Z" fill="#EEF2F8"/><g clip-path="url(#a)"><path d="m1022.86 427.293-41.903 32.582-40.092-31.198a183.897 183.897 0 0 1-156.32 179.146l-32.752 42.123 31.55 40.626a265.83 265.83 0 0 0 170.326-85.637 265.783 265.783 0 0 0 69.191-177.642Z" fill="#5494FF"/><path d="m790.876 202.043-31.199 40.115a183.861 183.861 0 0 1 179.157 156.308l42.112 32.764 40.634-31.561a265.863 265.863 0 0 0-263.355-239.466l32.651 41.84Z" fill="#3C85FF"/><path d="m533.043 392.147 40.103 31.187A183.884 183.884 0 0 1 729.455 244.2l32.752-42.123-31.55-40.626a265.833 265.833 0 0 0-239.522 263.278l41.908-32.582Z" fill="#7FAFFF"/><path d="m723.136 649.969 31.198-40.116A183.863 183.863 0 0 1 575.132 453.59l-42.123-32.752-40.626 31.55a265.864 265.864 0 0 0 263.29 239.511l-32.537-41.93Z" fill="#69A1FF"/><path d="M716.491 415.63c-2.013-14.542-13.2-22.979-27.709-22.979-17.099 0-29.979 12.464-29.979 33.622 0 21.125 12.72 33.622 29.979 33.622 15.564 0 25.887-10.068 27.709-22.564l-11.953-.064c-1.502 7.67-7.766 11.985-15.597 11.985-10.61 0-18.217-7.958-18.217-22.979 0-14.766 7.543-22.98 18.249-22.98 7.958 0 14.191 4.507 15.565 12.337h11.953ZM727.35 459h11.857v-23.97h12.081L764.136 459h13.231l-14.158-25.952c7.702-3.1 11.761-9.684 11.761-18.569 0-12.496-8.054-20.934-23.075-20.934H727.35V459Zm11.857-33.814v-21.733h10.866c8.853 0 12.816 4.059 12.816 11.026 0 6.968-3.963 10.707-12.752 10.707h-10.93Zm46.678-31.641V459h11.378v-45.064h.607l18.089 44.872h8.502l18.089-44.776h.607V459h11.378v-65.455h-14.51l-19.432 47.429h-.767l-19.431-47.429h-14.51Z" fill="#48626F"/></g><path stroke="#3C85FF" stroke-width="5" d="M364.751 249.5h199"/><path d="M441.227 178.288H85l27.021 71.779L85 321.847h356.227l27.043-71.78-27.043-71.779Z" fill="#3C85FF"/><path d="M404.573 155H112.564l35.636 94.629-35.636 94.651h292.009l35.636-94.651L404.573 155Z" fill="#EEF2F8"/><path d="m85 178.288 27.315 72.548h90.877l-27.315-72.548H85Z" fill="#3C85FF"/><circle cx="563.751" cy="250" r="10.111" fill="#fff" stroke="#3C85FF" stroke-width="5.778"/><path stroke="#3C85FF" stroke-width="5" d="M364.751 604.5h199"/><path d="M441.227 533.288H85l27.021 71.78L85 676.847h356.227l27.043-71.779-27.043-71.78Z" fill="#3C85FF"/><path d="M404.573 510H112.564l35.636 94.629-35.636 94.651h292.009l35.636-94.651L404.573 510Z" fill="#EEF2F8"/><path d="m85 533.288 27.315 72.548h90.877l-27.315-72.548H85Z" fill="#3C85FF"/><circle cx="563.751" cy="605" r="10.111" fill="#fff" stroke="#3C85FF" stroke-width="5.778"/><path stroke="#3C85FF" stroke-width="5" d="M1149 246.5H950"/><path d="M1072.52 175.288h356.23l-27.02 71.779 27.02 71.78h-356.23l-27.04-71.78 27.04-71.779Z" fill="#3C85FF"/><path d="M1109.18 152h292.01l-35.64 94.629 35.64 94.651h-292.01l-35.64-94.651L1109.18 152Z" fill="#EEF2F8"/><path d="m1429.19 175.288-27.31 72.548H1311l27.32-72.548h90.87Z" fill="#3C85FF"/><circle r="10.111" transform="matrix(-1 0 0 1 950 247)" fill="#fff" stroke="#3C85FF" stroke-width="5.778"/><path stroke="#3C85FF" stroke-width="5" d="M1149 604.5H950"/><path d="M1072.52 533.288h356.23l-27.02 71.78 27.02 71.779h-356.23l-27.04-71.779 27.04-71.78Z" fill="#3C85FF"/><path d="M1109.18 510h292.01l-35.64 94.629 35.64 94.651h-292.01l-35.64-94.651L1109.18 510Z" fill="#EEF2F8"/><path d="m1429.19 533.288-27.31 72.548H1311l27.32-72.548h90.87Z" fill="#3C85FF"/><circle r="10.111" transform="matrix(-1 0 0 1 950 605)" fill="#fff" stroke="#3C85FF" stroke-width="5.778"/><path d="M1130.95 203.234V223h3.44v-13.609h.18l5.46 13.551h2.57l5.46-13.522h.19V223h3.43v-19.766h-4.38l-5.87 14.323h-.23l-5.87-14.323h-4.38Zm28.74 20.065c2.33 0 3.72-1.09 4.35-2.335h.12V223h3.36v-9.922c0-3.918-3.2-5.096-6.02-5.096-3.12 0-5.51 1.39-6.29 4.092l3.27.464c.34-1.014 1.33-1.882 3.04-1.882 1.62 0 2.51.83 2.51 2.287v.058c0 1.004-1.06 1.052-3.67 1.332-2.88.309-5.63 1.168-5.63 4.507 0 2.915 2.13 4.459 4.96 4.459Zm.91-2.567c-1.46 0-2.5-.666-2.5-1.95 0-1.341 1.17-1.901 2.73-2.123.92-.126 2.75-.357 3.21-.724v1.747c0 1.65-1.34 3.05-3.44 3.05Zm10.43 2.268h3.5v-8.715c0-1.882 1.42-3.214 3.34-3.214.58 0 1.32.106 1.62.202v-3.214a8.428 8.428 0 0 0-1.26-.096c-1.7 0-3.11.965-3.66 2.683h-.15v-2.471h-3.39V223Zm10.78 0h3.49v-4.98l1.28-1.361 4.53 6.341h4.18l-6.08-8.426 5.74-6.399h-4.08l-5.33 5.955h-.24v-10.896h-3.49V223Zm21.43.29c3.45 0 5.82-1.689 6.44-4.266l-3.26-.367c-.47 1.254-1.63 1.911-3.14 1.911-2.26 0-3.75-1.487-3.78-4.025h10.33v-1.071c0-5.202-3.13-7.49-6.78-7.49-4.25 0-7.02 3.118-7.02 7.692 0 4.653 2.74 7.616 7.21 7.616Zm-3.73-9.102c.11-1.892 1.51-3.484 3.59-3.484 2.01 0 3.36 1.467 3.38 3.484h-6.97Zm20.68-6.013h-2.93v-3.552h-3.49v3.552h-2.11v2.703h2.11v8.242c-.02 2.789 2 4.16 4.63 4.083a7.09 7.09 0 0 0 2.06-.348l-.59-2.731c-.2.048-.59.135-1.03.135-.87 0-1.58-.309-1.58-1.718v-7.663h2.93v-2.703Zm2.92 14.825h3.49v-14.825h-3.49V223Zm1.75-16.929c1.11 0 2.02-.849 2.02-1.892 0-1.052-.91-1.901-2.02-1.901-1.12 0-2.02.849-2.02 1.901 0 1.043.9 1.892 2.02 1.892Zm8.83 8.243c0-2.143 1.29-3.378 3.13-3.378 1.81 0 2.89 1.187 2.89 3.165V223h3.49v-9.439c.01-3.552-2.01-5.579-5.07-5.579-2.22 0-3.75 1.062-4.42 2.712h-.18v-2.519h-3.34V223h3.5v-8.686Zm19.51 14.554c4.01 0 6.96-1.834 6.96-5.627v-15.066h-3.44v2.452h-.2c-.53-1.072-1.64-2.645-4.25-2.645-3.43 0-6.12 2.683-6.12 7.557 0 4.836 2.69 7.249 6.11 7.249 2.54 0 3.72-1.361 4.26-2.452h.18v2.809c0 2.181-1.45 3.079-3.44 3.079-2.1 0-3.03-.994-3.45-1.863l-3.15.762c.64 2.075 2.77 3.745 6.54 3.745Zm.03-8.821c-2.3 0-3.52-1.796-3.52-4.527 0-2.693 1.2-4.671 3.52-4.671 2.25 0 3.49 1.862 3.49 4.671 0 2.828-1.26 4.527-3.49 4.527Z" fill="#3C85FF"/><path d="m1131.12 248 1.32-3.707h5.29l1.32 3.707h1.66l-4.81-13.091h-1.63L1129.46 248h1.66Zm1.82-5.114 2.09-5.906h.11l2.09 5.906h-4.29Zm10.6 5.114h1.48l2.15-7.543h.15l2.15 7.543h1.48l2.99-9.818h-1.58l-2.12 7.491h-.1l-2.08-7.491h-1.61l-2.09 7.517h-.11l-2.12-7.517h-1.58l2.99 9.818Zm15.29.23c1.71 0 2.61-.92 2.91-1.56h.08V248h1.51v-6.469c0-3.119-2.38-3.477-3.63-3.477-1.49 0-3.17.511-3.94 2.301l1.43.511c.33-.715 1.12-1.482 2.56-1.482 1.39 0 2.07.735 2.07 1.994v.051c0 .729-.74.665-2.53.895-1.82.236-3.81.639-3.81 2.889 0 1.918 1.48 3.017 3.35 3.017Zm.23-1.355c-1.2 0-2.07-.537-2.07-1.585 0-1.151 1.05-1.509 2.22-1.662.64-.077 2.35-.256 2.61-.563v1.381c0 1.227-.97 2.429-2.76 2.429Zm7.02 1.125h1.51v-6.213c0-1.33 1.05-2.301 2.48-2.301.4 0 .82.076.92.102v-1.534c-.17-.013-.57-.026-.79-.026-1.18 0-2.2.665-2.56 1.637h-.1v-1.483h-1.46V248Zm10.52.205c1.99 0 3.45-.998 3.91-2.481l-1.46-.409c-.38 1.023-1.27 1.534-2.45 1.534-1.77 0-2.99-1.144-3.07-3.247h7.13v-.639c0-3.656-2.17-4.909-4.22-4.909-2.66 0-4.42 2.097-4.42 5.114s1.74 5.037 4.58 5.037Zm-3.07-5.907c.11-1.527 1.19-2.889 2.91-2.889 1.64 0 2.69 1.227 2.69 2.889h-5.6Zm10.94-.204c0-1.713 1.06-2.685 2.5-2.685 1.4 0 2.25.914 2.25 2.455V248h1.51v-6.239c0-2.505-1.34-3.707-3.32-3.707-1.49 0-2.41.665-2.87 1.662h-.13v-1.534h-1.45V248h1.51v-5.906Zm13.13 6.111c2 0 3.45-.998 3.91-2.481l-1.45-.409c-.39 1.023-1.27 1.534-2.46 1.534-1.77 0-2.99-1.144-3.06-3.247h7.13v-.639c0-3.656-2.18-4.909-4.22-4.909-2.66 0-4.42 2.097-4.42 5.114s1.73 5.037 4.57 5.037Zm-3.06-5.907c.1-1.527 1.18-2.889 2.91-2.889 1.64 0 2.68 1.227 2.68 2.889h-5.59Zm16.38-1.917c-.48-1.394-1.54-2.327-3.48-2.327-2.07 0-3.61 1.176-3.61 2.838 0 1.355.81 2.263 2.61 2.685l1.64.383c.99.23 1.46.703 1.46 1.381 0 .844-.9 1.534-2.3 1.534-1.24 0-2.01-.531-2.28-1.585l-1.43.358c.35 1.668 1.72 2.557 3.73 2.557 2.28 0 3.84-1.247 3.84-2.941 0-1.368-.86-2.231-2.61-2.659l-1.46-.358c-1.16-.287-1.69-.677-1.69-1.432 0-.843.9-1.457 2.1-1.457 1.32 0 1.86.729 2.12 1.406l1.36-.383Zm9.4 0c-.47-1.394-1.53-2.327-3.48-2.327-2.07 0-3.6 1.176-3.6 2.838 0 1.355.8 2.263 2.61 2.685l1.63.383c.99.23 1.46.703 1.46 1.381 0 .844-.89 1.534-2.3 1.534-1.23 0-2.01-.531-2.28-1.585l-1.43.358c.35 1.668 1.73 2.557 3.74 2.557 2.28 0 3.83-1.247 3.83-2.941 0-1.368-.86-2.231-2.61-2.659l-1.45-.358c-1.17-.287-1.69-.677-1.69-1.432 0-.843.89-1.457 2.09-1.457 1.32 0 1.86.729 2.13 1.406l1.35-.383Zm-78.69 26.074c0-4.143-2.43-6.725-5.78-6.725s-5.78 2.582-5.78 6.725c0 4.142 2.43 6.724 5.78 6.724s5.78-2.582 5.78-6.724Zm-1.53 0c0 3.4-1.87 5.241-4.25 5.241s-4.24-1.841-4.24-5.241c0-3.401 1.86-5.242 4.24-5.242s4.25 1.841 4.25 5.242Zm10.18 2.531c0 1.841-1.41 2.684-2.53 2.684-1.25 0-2.15-.92-2.15-2.352v-6.136h-1.51v6.238c0 2.506 1.33 3.708 3.17 3.708 1.49 0 2.46-.793 2.92-1.79h.1V273h1.51v-9.818h-1.51v5.804Zm8.54-5.804h-2.1v-2.352h-1.5v2.352h-1.49v1.278h1.49v6.137c0 1.713 1.38 2.531 2.65 2.531.57 0 .92-.102 1.13-.179l-.31-1.355c-.13.025-.33.076-.66.076-.67 0-1.31-.204-1.31-1.482v-5.728h2.1v-1.278Zm2.27 9.818h1.51v-6.213c0-1.33 1.05-2.301 2.48-2.301.4 0 .82.076.92.102v-1.534c-.17-.013-.57-.026-.79-.026-1.18 0-2.2.665-2.56 1.637h-.1v-1.483h-1.46V273Zm10.51.205c2 0 3.46-.998 3.92-2.481l-1.46-.409c-.38 1.023-1.27 1.534-2.46 1.534-1.77 0-2.99-1.144-3.06-3.247h7.13v-.639c0-3.656-2.17-4.909-4.22-4.909-2.66 0-4.42 2.097-4.42 5.114s1.74 5.037 4.57 5.037Zm-3.06-5.907c.11-1.527 1.19-2.889 2.91-2.889 1.64 0 2.69 1.227 2.69 2.889h-5.6Zm12.31 5.932c1.72 0 2.61-.92 2.92-1.56h.08V273h1.5v-6.469c0-3.119-2.37-3.477-3.63-3.477-1.48 0-3.17.511-3.93 2.301l1.43.511c.33-.715 1.12-1.482 2.55-1.482 1.39 0 2.08.735 2.08 1.994v.051c0 .729-.75.665-2.54.895-1.82.236-3.81.639-3.81 2.889 0 1.918 1.49 3.017 3.35 3.017Zm.23-1.355c-1.2 0-2.07-.537-2.07-1.585 0-1.151 1.05-1.509 2.23-1.662.64-.077 2.35-.256 2.61-.563v1.381c0 1.227-.98 2.429-2.77 2.429Zm11.02 1.33c2.17 0 3.6-1.33 3.86-3.069h-1.51c-.28 1.074-1.18 1.713-2.35 1.713-1.79 0-2.94-1.483-2.94-3.758 0-2.225 1.17-3.682 2.94-3.682 1.33 0 2.12.818 2.35 1.713h1.51c-.26-1.841-1.82-3.068-3.89-3.068-2.66 0-4.42 2.097-4.42 5.088 0 2.94 1.68 5.063 4.45 5.063Zm7.57-6.111c0-1.713 1.09-2.685 2.58-2.685 1.42 0 2.28.895 2.28 2.455V273h1.51v-6.239c0-2.524-1.35-3.707-3.35-3.707-1.55 0-2.43.646-2.89 1.662h-.13v-4.807h-1.51V273h1.51v-5.906ZM1130.59 298h7.67v-1.406h-6.09v-11.685h-1.58V298Zm14.03.205c2 0 3.45-.998 3.91-2.481l-1.45-.409c-.39 1.023-1.28 1.534-2.46 1.534-1.77 0-2.99-1.144-3.06-3.247h7.13v-.639c0-3.656-2.18-4.909-4.22-4.909-2.66 0-4.42 2.097-4.42 5.114s1.73 5.037 4.57 5.037Zm-3.06-5.907c.1-1.527 1.18-2.889 2.91-2.889 1.64 0 2.68 1.227 2.68 2.889h-5.59Zm12.31 5.932c1.71 0 2.61-.92 2.92-1.56h.07V298h1.51v-6.469c0-3.119-2.38-3.477-3.63-3.477-1.48 0-3.17.511-3.94 2.301l1.44.511c.33-.715 1.11-1.482 2.55-1.482 1.39 0 2.07.735 2.07 1.994v.051c0 .729-.74.665-2.53.895-1.82.236-3.81.639-3.81 2.889 0 1.918 1.48 3.017 3.35 3.017Zm.23-1.355c-1.2 0-2.07-.537-2.07-1.585 0-1.151 1.05-1.509 2.22-1.662.64-.077 2.36-.256 2.61-.563v1.381c0 1.227-.97 2.429-2.76 2.429Zm10.73 1.33c1.89 0 2.53-1.177 2.87-1.714h.17V298h1.46v-13.091h-1.51v4.832h-.12c-.34-.511-.92-1.687-2.84-1.687-2.48 0-4.2 1.969-4.2 5.062 0 3.12 1.72 5.089 4.17 5.089Zm.21-1.356c-1.9 0-2.87-1.661-2.87-3.758 0-2.071.95-3.682 2.87-3.682 1.84 0 2.81 1.483 2.81 3.682 0 2.224-1 3.758-2.81 3.758Zm21.48-7.849h1.64c-.49-2.531-2.61-4.27-5.37-4.27-3.36 0-5.73 2.582-5.73 6.725 0 4.142 2.35 6.724 5.83 6.724 3.12 0 5.34-2.077 5.34-5.318v-1.406h-4.98v1.406h3.45c-.05 2.352-1.59 3.835-3.81 3.835-2.43 0-4.3-1.841-4.3-5.241 0-3.401 1.87-5.242 4.2-5.242 1.89 0 3.17 1.068 3.73 2.787Zm8.34 9.205c1.99 0 3.45-.998 3.91-2.481l-1.46-.409c-.38 1.023-1.27 1.534-2.45 1.534-1.77 0-2.99-1.144-3.06-3.247h7.13v-.639c0-3.656-2.18-4.909-4.22-4.909-2.66 0-4.43 2.097-4.43 5.114s1.74 5.037 4.58 5.037Zm-3.06-5.907c.1-1.527 1.18-2.889 2.91-2.889 1.63 0 2.68 1.227 2.68 2.889h-5.59Zm10.93-.204c0-1.713 1.06-2.685 2.5-2.685 1.4 0 2.25.914 2.25 2.455V298h1.51v-6.239c0-2.505-1.33-3.707-3.32-3.707-1.48 0-2.4.665-2.86 1.662h-.13v-1.534h-1.46V298h1.51v-5.906Zm13.14 6.111c1.99 0 3.45-.998 3.91-2.481l-1.46-.409c-.38 1.023-1.27 1.534-2.45 1.534-1.77 0-3-1.144-3.07-3.247h7.13v-.639c0-3.656-2.17-4.909-4.22-4.909-2.66 0-4.42 2.097-4.42 5.114s1.74 5.037 4.58 5.037Zm-3.07-5.907c.11-1.527 1.19-2.889 2.91-2.889 1.64 0 2.69 1.227 2.69 2.889h-5.6Zm9.43 5.702h1.5v-6.213c0-1.33 1.05-2.301 2.49-2.301.4 0 .81.076.92.102v-1.534c-.18-.013-.57-.026-.8-.026-1.17 0-2.2.665-2.55 1.637h-.11v-1.483h-1.45V298Zm9.58.23c1.72 0 2.61-.92 2.92-1.56h.07V298h1.51v-6.469c0-3.119-2.37-3.477-3.63-3.477-1.48 0-3.17.511-3.94 2.301l1.44.511c.33-.715 1.12-1.482 2.55-1.482 1.39 0 2.07.735 2.07 1.994v.051c0 .729-.74.665-2.53.895-1.82.236-3.81.639-3.81 2.889 0 1.918 1.49 3.017 3.35 3.017Zm.23-1.355c-1.2 0-2.07-.537-2.07-1.585 0-1.151 1.05-1.509 2.23-1.662.64-.077 2.35-.256 2.6-.563v1.381c0 1.227-.97 2.429-2.76 2.429Zm11.3-8.693h-2.1v-2.352h-1.51v2.352h-1.48v1.278h1.48v6.137c0 1.713 1.38 2.531 2.66 2.531.56 0 .92-.102 1.13-.179l-.31-1.355c-.13.025-.33.076-.67.076-.66 0-1.3-.204-1.3-1.482v-5.728h2.1v-1.278Zm2.27 9.818h1.5v-9.818h-1.5V298Zm.76-11.455c.59 0 1.08-.46 1.08-1.022 0-.563-.49-1.023-1.08-1.023-.59 0-1.07.46-1.07 1.023 0 .562.48 1.022 1.07 1.022Zm7.5 11.66c2.65 0 4.44-2.02 4.44-5.063 0-3.068-1.79-5.088-4.44-5.088-2.66 0-4.45 2.02-4.45 5.088 0 3.043 1.79 5.063 4.45 5.063Zm0-1.356c-2.02 0-2.94-1.738-2.94-3.707 0-1.969.92-3.733 2.94-3.733s2.94 1.764 2.94 3.733-.92 3.707-2.94 3.707Zm8.26-4.755c0-1.713 1.06-2.685 2.5-2.685 1.4 0 2.25.914 2.25 2.455V298h1.51v-6.239c0-2.505-1.34-3.707-3.32-3.707-1.49 0-2.41.665-2.87 1.662h-.13v-1.534h-1.45V298h1.51v-5.906Z" fill="#000"/><path d="M1141.69 565.667h3.45c-.07-3.339-2.92-5.704-7.13-5.704-4.15 0-7.26 2.336-7.25 5.83 0 2.837 2.01 4.469 5.27 5.308l2.25.579c2.13.541 3.54 1.207 3.55 2.741-.01 1.689-1.61 2.819-3.95 2.819-2.24 0-3.98-1.004-4.12-3.079h-3.52c.14 3.928 3.06 6.138 7.67 6.138 4.74 0 7.49-2.364 7.5-5.849-.01-3.426-2.84-4.99-5.81-5.694l-1.86-.463c-1.62-.386-3.37-1.072-3.35-2.722.01-1.486 1.34-2.577 3.58-2.577 2.13 0 3.54.994 3.72 2.673Zm11.02 14.632c2.33 0 3.72-1.09 4.35-2.335h.12V580h3.36v-9.922c0-3.918-3.2-5.096-6.02-5.096-3.12 0-5.51 1.39-6.29 4.092l3.27.464c.34-1.014 1.33-1.882 3.04-1.882 1.62 0 2.51.83 2.51 2.287v.058c0 1.004-1.06 1.052-3.67 1.332-2.88.309-5.63 1.168-5.63 4.507 0 2.915 2.13 4.459 4.96 4.459Zm.91-2.567c-1.46 0-2.5-.666-2.5-1.95 0-1.341 1.17-1.901 2.73-2.123.92-.126 2.75-.357 3.2-.724v1.747c0 1.65-1.33 3.05-3.43 3.05Zm13.93-17.498h-3.5V580h3.5v-19.766Zm10.15 20.056c3.46 0 5.83-1.689 6.45-4.266l-3.26-.367c-.48 1.254-1.63 1.911-3.14 1.911-2.26 0-3.75-1.487-3.78-4.025h10.32v-1.071c0-5.202-3.12-7.49-6.77-7.49-4.25 0-7.02 3.118-7.02 7.692 0 4.653 2.73 7.616 7.2 7.616Zm-3.72-9.102c.1-1.892 1.5-3.484 3.59-3.484 2 0 3.36 1.467 3.37 3.484h-6.96Zm24.99-2.094c-.49-2.51-2.49-4.112-5.97-4.112-3.57 0-6 1.757-5.99 4.498-.01 2.162 1.32 3.59 4.17 4.179l2.53.531c1.36.299 1.99.849 1.99 1.689 0 1.013-1.1 1.776-2.76 1.776-1.6 0-2.64-.695-2.94-2.027l-3.41.328c.44 2.722 2.73 4.334 6.36 4.334 3.71 0 6.33-1.921 6.34-4.73-.01-2.113-1.38-3.407-4.17-4.015l-2.53-.54c-1.51-.338-2.11-.859-2.1-1.718-.01-1.004 1.1-1.699 2.56-1.699 1.61 0 2.46.878 2.73 1.853l3.19-.347Z" fill="#3C85FF"/><path d="M1130.59 605h1.58v-4.781h2.86c3.05 0 4.43-1.854 4.43-4.168s-1.38-4.142-4.45-4.142h-4.42V605Zm1.58-6.188v-5.497h2.79c2.13 0 2.94 1.164 2.94 2.736 0 1.573-.81 2.761-2.92 2.761h-2.81Zm9.64 6.188h1.5v-6.213c0-1.33 1.05-2.301 2.49-2.301.4 0 .81.076.92.102v-1.534c-.18-.013-.57-.026-.8-.026-1.17 0-2.2.665-2.55 1.637h-.11v-1.483h-1.45V605Zm10.38.205c2.66 0 4.45-2.02 4.45-5.063 0-3.068-1.79-5.088-4.45-5.088s-4.45 2.02-4.45 5.088c0 3.043 1.79 5.063 4.45 5.063Zm0-1.356c-2.02 0-2.94-1.738-2.94-3.707 0-1.969.92-3.733 2.94-3.733s2.94 1.764 2.94 3.733-.92 3.707-2.94 3.707Zm13.71-6.468c-.47-1.394-1.53-2.327-3.48-2.327-2.07 0-3.6 1.176-3.6 2.838 0 1.355.8 2.263 2.61 2.685l1.63.383c.99.23 1.46.703 1.46 1.381 0 .844-.9 1.534-2.3 1.534-1.24 0-2.01-.531-2.28-1.585l-1.43.358c.35 1.668 1.73 2.557 3.73 2.557 2.29 0 3.84-1.247 3.84-2.941 0-1.368-.86-2.231-2.61-2.659l-1.46-.358c-1.16-.287-1.68-.677-1.68-1.432 0-.843.89-1.457 2.09-1.457 1.32 0 1.86.729 2.12 1.406l1.36-.383Zm2.45 11.301h1.51v-5.191h.13c.33.537.97 1.714 2.86 1.714 2.45 0 4.17-1.969 4.17-5.089 0-3.093-1.72-5.062-4.2-5.062-1.91 0-2.5 1.176-2.83 1.687h-.18v-1.559h-1.46v13.5Zm1.48-8.591c0-2.199.97-3.682 2.81-3.682 1.92 0 2.87 1.611 2.87 3.682 0 2.097-.97 3.758-2.87 3.758-1.81 0-2.81-1.534-2.81-3.758Zm13.6 5.114c2 0 3.46-.998 3.92-2.481l-1.46-.409c-.38 1.023-1.27 1.534-2.46 1.534-1.77 0-2.99-1.144-3.06-3.247h7.13v-.639c0-3.656-2.17-4.909-4.22-4.909-2.66 0-4.42 2.097-4.42 5.114s1.74 5.037 4.57 5.037Zm-3.06-5.907c.11-1.527 1.19-2.889 2.91-2.889 1.64 0 2.69 1.227 2.69 2.889h-5.6Zm13.41 5.907c2.18 0 3.61-1.33 3.86-3.069h-1.5c-.29 1.074-1.18 1.713-2.36 1.713-1.79 0-2.94-1.483-2.94-3.758 0-2.225 1.18-3.682 2.94-3.682 1.33 0 2.13.818 2.36 1.713h1.5c-.25-1.841-1.81-3.068-3.88-3.068-2.66 0-4.43 2.097-4.43 5.088 0 2.94 1.69 5.063 4.45 5.063Zm10.34-10.023h-2.1v-2.352h-1.51v2.352h-1.48v1.278h1.48v6.137c0 1.713 1.38 2.531 2.66 2.531.57 0 .92-.102 1.13-.179l-.31-1.355c-.13.025-.33.076-.66.076-.67 0-1.31-.204-1.31-1.482v-5.728h2.1v-1.278Zm2.27 9.818h1.51v-9.818h-1.51V605Zm.77-11.455c.58 0 1.07-.46 1.07-1.022 0-.563-.49-1.023-1.07-1.023-.59 0-1.08.46-1.08 1.023 0 .562.49 1.022 1.08 1.022Zm5.01 5.549c0-1.713 1.06-2.685 2.5-2.685 1.4 0 2.25.914 2.25 2.455V605h1.51v-6.239c0-2.505-1.33-3.707-3.32-3.707-1.48 0-2.4.665-2.86 1.662h-.13v-1.534h-1.46V605h1.51v-5.906Zm12.98 9.792c2.35 0 4.25-1.074 4.25-3.605v-10.099h-1.46v1.559h-.15c-.34-.511-.95-1.687-2.87-1.687-2.48 0-4.19 1.969-4.19 4.986 0 3.068 1.79 4.807 4.17 4.807 1.91 0 2.53-1.125 2.86-1.662h.13v1.994c0 1.636-1.15 2.378-2.74 2.378-1.78 0-2.41-.94-2.81-1.483l-1.2.844c.61 1.029 1.82 1.968 4.01 1.968Zm-.05-5.395c-1.89 0-2.86-1.431-2.86-3.477 0-1.994.94-3.605 2.86-3.605 1.84 0 2.81 1.483 2.81 3.605 0 2.174-.99 3.477-2.81 3.477ZM1130.59 630h7.67v-1.406h-6.09v-11.685h-1.58V630Zm14.03.205c2 0 3.45-.998 3.91-2.481l-1.45-.409c-.39 1.023-1.28 1.534-2.46 1.534-1.77 0-2.99-1.144-3.06-3.247h7.13v-.639c0-3.656-2.18-4.909-4.22-4.909-2.66 0-4.42 2.097-4.42 5.114s1.73 5.037 4.57 5.037Zm-3.06-5.907c.1-1.527 1.18-2.889 2.91-2.889 1.64 0 2.68 1.227 2.68 2.889h-5.59Zm12.31 5.932c1.71 0 2.61-.92 2.92-1.56h.07V630h1.51v-6.469c0-3.119-2.38-3.477-3.63-3.477-1.48 0-3.17.511-3.94 2.301l1.44.511c.33-.715 1.11-1.482 2.55-1.482 1.39 0 2.07.735 2.07 1.994v.051c0 .729-.74.665-2.53.895-1.82.236-3.81.639-3.81 2.889 0 1.918 1.48 3.017 3.35 3.017Zm.23-1.355c-1.2 0-2.07-.537-2.07-1.585 0-1.151 1.05-1.509 2.22-1.662.64-.077 2.36-.256 2.61-.563v1.381c0 1.227-.97 2.429-2.76 2.429Zm10.73 1.33c1.89 0 2.53-1.177 2.87-1.714h.17V630h1.46v-13.091h-1.51v4.832h-.12c-.34-.511-.92-1.687-2.84-1.687-2.48 0-4.2 1.969-4.2 5.062 0 3.12 1.72 5.089 4.17 5.089Zm.21-1.356c-1.9 0-2.87-1.661-2.87-3.758 0-2.071.95-3.682 2.87-3.682 1.84 0 2.81 1.483 2.81 3.682 0 2.224-1 3.758-2.81 3.758Zm23.58-5.394c0-4.143-2.43-6.725-5.78-6.725s-5.78 2.582-5.78 6.725c0 4.142 2.43 6.724 5.78 6.724.86 0 1.65-.166 2.36-.486l1.14 1.534h1.74l-1.71-2.269c1.4-1.144 2.25-3.049 2.25-5.503Zm-6.29 2.454 1.94 2.544c-.45.16-.93.243-1.43.243-2.38 0-4.25-1.841-4.25-5.241 0-3.401 1.87-5.242 4.25-5.242s4.24 1.841 4.24 5.242c0 1.975-.62 3.419-1.62 4.289l-1.39-1.835h-1.74Zm14.94.077c0 1.841-1.41 2.684-2.54 2.684-1.25 0-2.14-.92-2.14-2.352v-6.136h-1.51v6.238c0 2.506 1.33 3.708 3.17 3.708 1.48 0 2.45-.793 2.91-1.79h.11V630h1.5v-9.818h-1.5v5.804Zm7.16 4.244c1.71 0 2.6-.92 2.91-1.56h.08V630h1.51v-6.469c0-3.119-2.38-3.477-3.63-3.477-1.49 0-3.18.511-3.94 2.301l1.43.511c.33-.715 1.12-1.482 2.56-1.482 1.38 0 2.07.735 2.07 1.994v.051c0 .729-.74.665-2.53.895-1.83.236-3.81.639-3.81 2.889 0 1.918 1.48 3.017 3.35 3.017Zm.23-1.355c-1.21 0-2.07-.537-2.07-1.585 0-1.151 1.04-1.509 2.22-1.662.64-.077 2.35-.256 2.61-.563v1.381c0 1.227-.97 2.429-2.76 2.429Zm8.53-11.966h-1.51V630h1.51v-13.091Zm2.76 13.091h1.51v-9.818h-1.51V630Zm.77-11.455c.59 0 1.07-.46 1.07-1.022 0-.563-.48-1.023-1.07-1.023-.59 0-1.08.46-1.08 1.023 0 .562.49 1.022 1.08 1.022Zm7.87 1.637h-2.19v-.997c0-.972.4-1.483 1.4-1.483.44 0 .69.102.85.153l.43-1.304c-.23-.102-.69-.256-1.43-.256-1.41 0-2.76.844-2.76 2.532v1.355h-1.59v1.278h1.59V630h1.51v-8.54h2.19v-1.278Zm2.12 9.818h1.51v-9.818h-1.51V630Zm.77-11.455c.58 0 1.07-.46 1.07-1.022 0-.563-.49-1.023-1.07-1.023-.59 0-1.08.46-1.08 1.023 0 .562.49 1.022 1.08 1.022Zm7.49 11.66c2.17 0 3.6-1.33 3.86-3.069h-1.51c-.28 1.074-1.17 1.713-2.35 1.713-1.79 0-2.94-1.483-2.94-3.758 0-2.225 1.17-3.682 2.94-3.682 1.33 0 2.12.818 2.35 1.713h1.51c-.26-1.841-1.82-3.068-3.89-3.068-2.66 0-4.42 2.097-4.42 5.088 0 2.94 1.69 5.063 4.45 5.063Zm8.95.025c1.72 0 2.61-.92 2.92-1.56h.08V630h1.5v-6.469c0-3.119-2.37-3.477-3.63-3.477-1.48 0-3.17.511-3.93 2.301l1.43.511c.33-.715 1.12-1.482 2.55-1.482 1.39 0 2.08.735 2.08 1.994v.051c0 .729-.75.665-2.54.895-1.82.236-3.81.639-3.81 2.889 0 1.918 1.49 3.017 3.35 3.017Zm.23-1.355c-1.2 0-2.07-.537-2.07-1.585 0-1.151 1.05-1.509 2.23-1.662.64-.077 2.35-.256 2.61-.563v1.381c0 1.227-.98 2.429-2.77 2.429Zm11.3-8.693h-2.1v-2.352h-1.51v2.352h-1.48v1.278h1.48v6.137c0 1.713 1.38 2.531 2.66 2.531.56 0 .92-.102 1.13-.179l-.31-1.355c-.13.025-.33.076-.67.076-.66 0-1.3-.204-1.3-1.482v-5.728h2.1v-1.278Zm2.27 9.818h1.51v-9.818h-1.51V630Zm.76-11.455c.59 0 1.08-.46 1.08-1.022 0-.563-.49-1.023-1.08-1.023-.58 0-1.07.46-1.07 1.023 0 .562.49 1.022 1.07 1.022Zm7.5 11.66c2.66 0 4.45-2.02 4.45-5.063 0-3.068-1.79-5.088-4.45-5.088s-4.45 2.02-4.45 5.088c0 3.043 1.79 5.063 4.45 5.063Zm0-1.356c-2.02 0-2.94-1.738-2.94-3.707 0-1.969.92-3.733 2.94-3.733s2.94 1.764 2.94 3.733-.92 3.707-2.94 3.707Zm8.26-4.755c0-1.713 1.06-2.685 2.5-2.685 1.4 0 2.25.914 2.25 2.455V630h1.51v-6.239c0-2.505-1.33-3.707-3.32-3.707-1.49 0-2.41.665-2.87 1.662h-.12v-1.534h-1.46V630h1.51v-5.906ZM1141.12 646c-.49-2.685-2.63-4.27-5.27-4.27-3.35 0-5.78 2.582-5.78 6.725 0 4.142 2.43 6.724 5.78 6.724 2.64 0 4.78-1.585 5.27-4.27h-1.59c-.38 1.815-1.94 2.787-3.68 2.787-2.38 0-4.24-1.841-4.24-5.241 0-3.401 1.86-5.242 4.24-5.242 1.74 0 3.3.972 3.68 2.787h1.59Zm6.35 9.205c2.65 0 4.44-2.02 4.44-5.063 0-3.068-1.79-5.088-4.44-5.088-2.66 0-4.45 2.02-4.45 5.088 0 3.043 1.79 5.063 4.45 5.063Zm0-1.356c-2.02 0-2.95-1.738-2.95-3.707 0-1.969.93-3.733 2.95-3.733 2.01 0 2.94 1.764 2.94 3.733s-.93 3.707-2.94 3.707Zm8.26-4.755c0-1.713 1.06-2.685 2.5-2.685 1.4 0 2.25.914 2.25 2.455V655h1.51v-6.239c0-2.505-1.34-3.707-3.32-3.707-1.49 0-2.41.665-2.87 1.662h-.13v-1.534h-1.45V655h1.51v-5.906Zm16.69-3.912h-1.63l-2.71 7.824h-.11l-2.71-7.824h-1.63l3.63 9.818h1.53l3.63-9.818Zm5.76 10.023c1.99 0 3.45-.998 3.91-2.481l-1.46-.409c-.38 1.023-1.27 1.534-2.45 1.534-1.77 0-2.99-1.144-3.06-3.247h7.12v-.639c0-3.656-2.17-4.909-4.21-4.909-2.66 0-4.43 2.097-4.43 5.114s1.74 5.037 4.58 5.037Zm-3.06-5.907c.1-1.527 1.18-2.889 2.91-2.889 1.63 0 2.68 1.227 2.68 2.889h-5.59Zm9.42 5.702h1.51v-6.213c0-1.33 1.05-2.301 2.48-2.301.4 0 .82.076.92.102v-1.534c-.17-.013-.57-.026-.79-.026-1.18 0-2.2.665-2.56 1.637h-.1v-1.483h-1.46V655Zm13.65-7.619c-.47-1.394-1.53-2.327-3.48-2.327-2.07 0-3.6 1.176-3.6 2.838 0 1.355.8 2.263 2.61 2.685l1.63.383c.99.23 1.46.703 1.46 1.381 0 .844-.89 1.534-2.3 1.534-1.23 0-2.01-.531-2.28-1.585l-1.43.358c.35 1.668 1.73 2.557 3.73 2.557 2.29 0 3.84-1.247 3.84-2.941 0-1.368-.86-2.231-2.61-2.659l-1.46-.358c-1.16-.287-1.68-.677-1.68-1.432 0-.843.89-1.457 2.09-1.457 1.32 0 1.86.729 2.13 1.406l1.35-.383Zm2.45 7.619h1.51v-9.818h-1.51V655Zm.77-11.455c.59 0 1.07-.46 1.07-1.022 0-.563-.48-1.023-1.07-1.023-.59 0-1.08.46-1.08 1.023 0 .562.49 1.022 1.08 1.022Zm7.49 11.66c2.66 0 4.45-2.02 4.45-5.063 0-3.068-1.79-5.088-4.45-5.088s-4.45 2.02-4.45 5.088c0 3.043 1.79 5.063 4.45 5.063Zm0-1.356c-2.02 0-2.94-1.738-2.94-3.707 0-1.969.92-3.733 2.94-3.733s2.94 1.764 2.94 3.733-.92 3.707-2.94 3.707Zm8.26-4.755c0-1.713 1.06-2.685 2.51-2.685 1.4 0 2.25.914 2.25 2.455V655h1.5v-6.239c0-2.505-1.33-3.707-3.32-3.707-1.48 0-2.4.665-2.86 1.662h-.13v-1.534h-1.46V655h1.51v-5.906Z" fill="#000"/><path d="M283.1 199.667h3.446c-.068-3.339-2.915-5.704-7.123-5.704-4.15 0-7.268 2.336-7.258 5.83 0 2.837 2.017 4.469 5.269 5.308l2.249.579c2.133.541 3.542 1.207 3.552 2.741-.01 1.689-1.612 2.819-3.947 2.819-2.24 0-3.977-1.004-4.122-3.079h-3.522c.144 3.928 3.069 6.138 7.673 6.138 4.738 0 7.489-2.364 7.499-5.849-.01-3.426-2.838-4.99-5.81-5.694l-1.854-.463c-1.621-.386-3.378-1.072-3.358-2.722.009-1.486 1.341-2.577 3.58-2.577 2.133 0 3.543.994 3.726 2.673Zm16.202 8.098c0 2.259-1.611 3.378-3.156 3.378-1.679 0-2.799-1.187-2.799-3.069v-8.899h-3.493v9.439c0 3.562 2.026 5.579 4.941 5.579 2.22 0 3.784-1.168 4.459-2.828h.155V214h3.387v-14.825h-3.494v8.59Zm7.087 11.794h3.494v-7.895h.145c.55 1.081 1.698 2.597 4.246 2.597 3.494 0 6.11-2.77 6.11-7.654 0-4.942-2.693-7.625-6.119-7.625-2.616 0-3.706 1.573-4.237 2.645h-.203v-2.452h-3.436v20.384Zm3.426-12.971c0-2.877 1.236-4.739 3.485-4.739 2.326 0 3.522 1.978 3.522 4.739 0 2.779-1.216 4.806-3.522 4.806-2.23 0-3.485-1.93-3.485-4.806Zm13.561 12.971h3.494v-7.895h.145c.55 1.081 1.698 2.597 4.246 2.597 3.494 0 6.11-2.77 6.11-7.654 0-4.942-2.693-7.625-6.119-7.625-2.616 0-3.707 1.573-4.237 2.645h-.203v-2.452h-3.436v20.384Zm3.426-12.971c0-2.877 1.236-4.739 3.484-4.739 2.326 0 3.523 1.978 3.523 4.739 0 2.779-1.216 4.806-3.523 4.806-2.229 0-3.484-1.93-3.484-4.806Zm20.027 7.702c4.343 0 7.104-3.06 7.104-7.644 0-4.595-2.761-7.664-7.104-7.664s-7.103 3.069-7.103 7.664c0 4.584 2.76 7.644 7.103 7.644Zm.02-2.799c-2.404 0-3.581-2.143-3.581-4.855 0-2.712 1.177-4.884 3.581-4.884 2.364 0 3.542 2.172 3.542 4.884s-1.178 4.855-3.542 4.855ZM356.898 214h3.494v-8.715c0-1.882 1.419-3.214 3.34-3.214.588 0 1.322.106 1.621.202v-3.214a8.39 8.39 0 0 0-1.255-.096c-1.698 0-3.117.965-3.658 2.683h-.154v-2.471h-3.388V214Zm18.975-14.825h-2.924v-3.552h-3.494v3.552h-2.104v2.703h2.104v8.242c-.019 2.789 2.007 4.16 4.633 4.083a6.992 6.992 0 0 0 2.055-.348l-.588-2.731a4.373 4.373 0 0 1-1.023.135c-.879 0-1.583-.309-1.583-1.718v-7.663h2.924v-2.703Z" fill="#3C85FF"/><path d="M309.93 227.315h4.116V239h1.586v-11.685h4.116v-1.406h-9.818v1.406ZM320.971 239h1.508v-6.213c0-1.33 1.048-2.301 2.48-2.301.403 0 .818.076.921.102v-1.534a14.28 14.28 0 0 0-.793-.026c-1.176 0-2.199.665-2.557 1.637h-.102v-1.483h-1.457V239Zm9.586.23c1.713 0 2.608-.92 2.915-1.56h.076V239h1.509v-6.469c0-3.119-2.378-3.477-3.631-3.477-1.483 0-3.17.511-3.937 2.301l1.432.511c.332-.715 1.118-1.482 2.556-1.482 1.388 0 2.071.735 2.071 1.994v.051c0 .729-.741.665-2.531.895-1.822.236-3.809.639-3.809 2.889 0 1.918 1.483 3.017 3.349 3.017Zm.23-1.355c-1.202 0-2.071-.537-2.071-1.585 0-1.151 1.048-1.509 2.225-1.662.639-.077 2.352-.256 2.607-.563v1.381c0 1.227-.971 2.429-2.761 2.429ZM337.81 239h1.509v-9.818h-1.509V239Zm.767-11.455c.588 0 1.074-.46 1.074-1.022 0-.563-.486-1.023-1.074-1.023-.588 0-1.073.46-1.073 1.023 0 .562.485 1.022 1.073 1.022Zm5.013 5.549c0-1.713 1.061-2.685 2.506-2.685 1.4 0 2.25.914 2.25 2.455V239h1.509v-6.239c0-2.505-1.336-3.707-3.324-3.707-1.483 0-2.404.665-2.864 1.662h-.128v-1.534h-1.457V239h1.508v-5.906Zm9.021 5.906h1.509v-9.818h-1.509V239Zm.767-11.455c.588 0 1.074-.46 1.074-1.022 0-.563-.486-1.023-1.074-1.023-.588 0-1.074.46-1.074 1.023 0 .562.486 1.022 1.074 1.022Zm5.013 5.549c0-1.713 1.061-2.685 2.506-2.685 1.4 0 2.25.914 2.25 2.455V239h1.508v-6.239c0-2.505-1.336-3.707-3.324-3.707-1.482 0-2.403.665-2.863 1.662h-.128v-1.534h-1.457V239h1.508v-5.906Zm12.984 9.792c2.352 0 4.244-1.074 4.244-3.605v-10.099h-1.457v1.559h-.153c-.333-.511-.947-1.687-2.864-1.687-2.48 0-4.193 1.969-4.193 4.986 0 3.068 1.789 4.807 4.167 4.807 1.918 0 2.532-1.125 2.864-1.662h.128v1.994c0 1.636-1.151 2.378-2.736 2.378-1.783 0-2.41-.94-2.813-1.483l-1.201.844c.613 1.029 1.822 1.968 4.014 1.968Zm-.051-5.395c-1.892 0-2.864-1.431-2.864-3.477 0-1.994.946-3.605 2.864-3.605 1.841 0 2.812 1.483 2.812 3.605 0 2.174-.997 3.477-2.812 3.477ZM229.475 255c-.486-2.685-2.634-4.27-5.267-4.27-3.35 0-5.779 2.582-5.779 6.725 0 4.142 2.429 6.724 5.779 6.724 2.633 0 4.781-1.585 5.267-4.27h-1.585c-.384 1.815-1.944 2.787-3.682 2.787-2.378 0-4.245-1.841-4.245-5.241 0-3.401 1.867-5.242 4.245-5.242 1.738 0 3.298.972 3.682 2.787h1.585Zm5.246 9.23c1.713 0 2.608-.92 2.915-1.56h.077V264h1.508v-6.469c0-3.119-2.378-3.477-3.631-3.477-1.483 0-3.17.511-3.937 2.301l1.432.511c.332-.715 1.118-1.482 2.557-1.482 1.387 0 2.071.735 2.071 1.994v.051c0 .729-.742.665-2.532.895-1.821.236-3.809.639-3.809 2.889 0 1.918 1.483 3.017 3.349 3.017Zm.23-1.355c-1.202 0-2.071-.537-2.071-1.585 0-1.151 1.048-1.509 2.225-1.662.639-.077 2.352-.256 2.608-.563v1.381c0 1.227-.972 2.429-2.762 2.429Zm13.978-6.494c-.473-1.394-1.534-2.327-3.477-2.327-2.071 0-3.605 1.176-3.605 2.838 0 1.355.805 2.263 2.608 2.685l1.636.383c.991.23 1.457.703 1.457 1.381 0 .844-.895 1.534-2.301 1.534-1.234 0-2.007-.531-2.275-1.585l-1.432.358c.351 1.668 1.726 2.557 3.733 2.557 2.282 0 3.835-1.247 3.835-2.941 0-1.368-.857-2.231-2.608-2.659l-1.457-.358c-1.164-.287-1.688-.677-1.688-1.432 0-.843.895-1.457 2.097-1.457 1.316 0 1.86.729 2.122 1.406l1.355-.383Zm6.566 7.824c1.995 0 3.452-.998 3.912-2.481l-1.457-.409c-.384 1.023-1.272 1.534-2.455 1.534-1.77 0-2.991-1.144-3.062-3.247h7.128v-.639c0-3.656-2.174-4.909-4.219-4.909-2.659 0-4.423 2.097-4.423 5.114s1.738 5.037 4.576 5.037Zm-3.062-5.907c.103-1.527 1.183-2.889 2.909-2.889 1.636 0 2.684 1.227 2.684 2.889h-5.593Zm14.689-7.389V264h1.483v-9.946h.128l4.091 9.946h1.432l4.091-9.946h.128V264h1.483v-13.091h-1.892l-4.449 10.867h-.154l-4.449-10.867h-1.892Zm18.699 13.321c1.713 0 2.608-.92 2.914-1.56h.077V264h1.509v-6.469c0-3.119-2.378-3.477-3.631-3.477-1.483 0-3.17.511-3.938 2.301l1.432.511c.333-.715 1.119-1.482 2.557-1.482 1.387 0 2.071.735 2.071 1.994v.051c0 .729-.741.665-2.531.895-1.822.236-3.81.639-3.81 2.889 0 1.918 1.483 3.017 3.35 3.017Zm.23-1.355c-1.202 0-2.071-.537-2.071-1.585 0-1.151 1.048-1.509 2.224-1.662.639-.077 2.352-.256 2.608-.563v1.381c0 1.227-.971 2.429-2.761 2.429Zm8.532-4.781c0-1.713 1.061-2.685 2.505-2.685 1.4 0 2.25.914 2.25 2.455V264h1.509v-6.239c0-2.505-1.336-3.707-3.324-3.707-1.483 0-2.404.665-2.864 1.662h-.128v-1.534h-1.457V264h1.509v-5.906Zm11.91 6.136c1.713 0 2.607-.92 2.914-1.56h.077V264h1.509v-6.469c0-3.119-2.378-3.477-3.631-3.477-1.483 0-3.171.511-3.938 2.301l1.432.511c.333-.715 1.119-1.482 2.557-1.482 1.387 0 2.071.735 2.071 1.994v.051c0 .729-.741.665-2.531.895-1.822.236-3.81.639-3.81 2.889 0 1.918 1.483 3.017 3.35 3.017Zm.23-1.355c-1.202 0-2.071-.537-2.071-1.585 0-1.151 1.048-1.509 2.224-1.662.639-.077 2.352-.256 2.608-.563v1.381c0 1.227-.972 2.429-2.761 2.429Zm10.986 5.011c2.352 0 4.244-1.074 4.244-3.605v-10.099h-1.457v1.559h-.153c-.333-.511-.947-1.687-2.864-1.687-2.48 0-4.193 1.969-4.193 4.986 0 3.068 1.789 4.807 4.167 4.807 1.918 0 2.532-1.125 2.864-1.662h.128v1.994c0 1.636-1.151 2.378-2.736 2.378-1.783 0-2.41-.94-2.813-1.483l-1.201.844c.613 1.029 1.822 1.968 4.014 1.968Zm-.051-5.395c-1.892 0-2.864-1.431-2.864-3.477 0-1.994.946-3.605 2.864-3.605 1.841 0 2.812 1.483 2.812 3.605 0 2.174-.997 3.477-2.812 3.477Zm11.173 1.714c1.994 0 3.452-.998 3.912-2.481l-1.457-.409c-.384 1.023-1.272 1.534-2.455 1.534-1.77 0-2.991-1.144-3.062-3.247h7.127v-.639c0-3.656-2.173-4.909-4.218-4.909-2.659 0-4.424 2.097-4.424 5.114s1.739 5.037 4.577 5.037Zm-3.062-5.907c.103-1.527 1.183-2.889 2.909-2.889 1.636 0 2.684 1.227 2.684 2.889h-5.593Zm9.422 5.702h1.509v-6.136c0-1.439 1.048-2.455 2.224-2.455 1.144 0 1.943.748 1.943 1.867V264h1.534v-6.392c0-1.266.793-2.199 2.174-2.199 1.074 0 1.994.569 1.994 2.02V264h1.509v-6.571c0-2.308-1.24-3.375-2.992-3.375-1.406 0-2.435.646-2.94 1.662h-.102c-.486-1.048-1.343-1.662-2.634-1.662-1.278 0-2.224.614-2.634 1.662h-.127v-1.534h-1.458V264Zm19.761.205c1.995 0 3.452-.998 3.912-2.481l-1.457-.409c-.384 1.023-1.272 1.534-2.455 1.534-1.77 0-2.991-1.144-3.062-3.247h7.128v-.639c0-3.656-2.174-4.909-4.219-4.909-2.659 0-4.423 2.097-4.423 5.114s1.738 5.037 4.576 5.037Zm-3.062-5.907c.103-1.527 1.183-2.889 2.909-2.889 1.636 0 2.684 1.227 2.684 2.889h-5.593Zm10.931-.204c0-1.713 1.061-2.685 2.506-2.685 1.399 0 2.25.914 2.25 2.455V264h1.508v-6.239c0-2.505-1.336-3.707-3.324-3.707-1.483 0-2.403.665-2.863 1.662h-.128v-1.534h-1.458V264h1.509v-5.906Zm13.291-3.912h-2.097v-2.352h-1.509v2.352h-1.483v1.278h1.483v6.137c0 1.713 1.381 2.531 2.659 2.531.563 0 .921-.102 1.125-.179l-.306-1.355c-.128.025-.333.076-.665.076-.665 0-1.304-.204-1.304-1.482v-5.728h2.097v-1.278ZM300.367 280c-.485-2.685-2.633-4.27-5.267-4.27-3.349 0-5.778 2.582-5.778 6.725 0 4.142 2.429 6.724 5.778 6.724 2.634 0 4.782-1.585 5.267-4.27h-1.585c-.383 1.815-1.943 2.787-3.682 2.787-2.378 0-4.244-1.841-4.244-5.241 0-3.401 1.866-5.242 4.244-5.242 1.739 0 3.299.972 3.682 2.787h1.585Zm8.545 4.986c0 1.841-1.406 2.684-2.531 2.684-1.253 0-2.148-.92-2.148-2.352v-6.136h-1.509v6.238c0 2.506 1.33 3.708 3.171 3.708 1.483 0 2.454-.793 2.915-1.79h.102V289h1.508v-9.818h-1.508v5.804Zm11.226-3.605c-.473-1.394-1.534-2.327-3.477-2.327-2.071 0-3.605 1.176-3.605 2.838 0 1.355.805 2.263 2.608 2.685l1.636.383c.991.23 1.457.703 1.457 1.381 0 .844-.895 1.534-2.301 1.534-1.234 0-2.007-.531-2.275-1.585l-1.432.358c.351 1.668 1.726 2.557 3.733 2.557 2.282 0 3.835-1.247 3.835-2.941 0-1.368-.857-2.231-2.608-2.659l-1.457-.358c-1.164-.287-1.688-.677-1.688-1.432 0-.843.895-1.457 2.097-1.457 1.316 0 1.86.729 2.122 1.406l1.355-.383Zm6.72-2.199h-2.097v-2.352h-1.509v2.352h-1.482v1.278h1.482v6.137c0 1.713 1.381 2.531 2.66 2.531.562 0 .92-.102 1.125-.179l-.307-1.355c-.128.025-.333.076-.665.076-.665 0-1.304-.204-1.304-1.482v-5.728h2.097v-1.278Zm6.152 10.023c2.659 0 4.449-2.02 4.449-5.063 0-3.068-1.79-5.088-4.449-5.088s-4.449 2.02-4.449 5.088c0 3.043 1.79 5.063 4.449 5.063Zm0-1.356c-2.02 0-2.94-1.738-2.94-3.707 0-1.969.92-3.733 2.94-3.733s2.94 1.764 2.94 3.733-.92 3.707-2.94 3.707Zm6.752 1.151h1.508v-6.136c0-1.439 1.048-2.455 2.224-2.455 1.145 0 1.944.748 1.944 1.867V289h1.534v-6.392c0-1.266.792-2.199 2.173-2.199 1.074 0 1.994.569 1.994 2.02V289h1.509v-6.571c0-2.308-1.24-3.375-2.992-3.375-1.406 0-2.435.646-2.94 1.662h-.102c-.486-1.048-1.343-1.662-2.634-1.662-1.278 0-2.224.614-2.633 1.662h-.128v-1.534h-1.457V289Zm19.761.205c1.994 0 3.451-.998 3.911-2.481l-1.457-.409c-.383 1.023-1.272 1.534-2.454 1.534-1.771 0-2.992-1.144-3.062-3.247h7.127v-.639c0-3.656-2.173-4.909-4.219-4.909-2.659 0-4.423 2.097-4.423 5.114s1.738 5.037 4.577 5.037Zm-3.062-5.907c.102-1.527 1.182-2.889 2.908-2.889 1.637 0 2.685 1.227 2.685 2.889h-5.593Zm9.422 5.702h1.508v-6.213c0-1.33 1.048-2.301 2.48-2.301.403 0 .818.076.921.102v-1.534a14.28 14.28 0 0 0-.793-.026c-1.176 0-2.199.665-2.557 1.637h-.102v-1.483h-1.457V289Zm10.71-13.705h-1.381l-4.219 15.674h1.381l4.219-15.674ZM203.951 305c-.485-2.685-2.633-4.27-5.267-4.27-3.349 0-5.778 2.582-5.778 6.725 0 4.142 2.429 6.724 5.778 6.724 2.634 0 4.782-1.585 5.267-4.27h-1.585c-.383 1.815-1.943 2.787-3.682 2.787-2.378 0-4.244-1.841-4.244-5.241 0-3.401 1.866-5.242 4.244-5.242 1.739 0 3.299.972 3.682 2.787h1.585Zm6.346 9.205c2.659 0 4.449-2.02 4.449-5.063 0-3.068-1.79-5.088-4.449-5.088s-4.449 2.02-4.449 5.088c0 3.043 1.79 5.063 4.449 5.063Zm0-1.356c-2.02 0-2.94-1.738-2.94-3.707 0-1.969.92-3.733 2.94-3.733s2.94 1.764 2.94 3.733-.92 3.707-2.94 3.707Zm6.752 1.151h1.508v-6.136c0-1.439 1.048-2.455 2.225-2.455 1.144 0 1.943.748 1.943 1.867V314h1.534v-6.392c0-1.266.792-2.199 2.173-2.199 1.074 0 1.994.569 1.994 2.02V314h1.509v-6.571c0-2.308-1.24-3.375-2.991-3.375-1.407 0-2.436.646-2.941 1.662h-.102c-.486-1.048-1.342-1.662-2.634-1.662-1.278 0-2.224.614-2.633 1.662h-.128v-1.534h-1.457V314Zm15.644 0h1.509v-6.136c0-1.439 1.048-2.455 2.224-2.455 1.144 0 1.943.748 1.943 1.867V314h1.534v-6.392c0-1.266.793-2.199 2.174-2.199 1.074 0 1.994.569 1.994 2.02V314h1.509v-6.571c0-2.308-1.241-3.375-2.992-3.375-1.406 0-2.435.646-2.94 1.662h-.103c-.485-1.048-1.342-1.662-2.633-1.662-1.278 0-2.224.614-2.634 1.662h-.127v-1.534h-1.458V314Zm21.832-4.014c0 1.841-1.406 2.684-2.531 2.684-1.253 0-2.148-.92-2.148-2.352v-6.136h-1.508v6.238c0 2.506 1.329 3.708 3.17 3.708 1.483 0 2.455-.793 2.915-1.79h.102V314h1.509v-9.818h-1.509v5.804Zm5.78-1.892c0-1.713 1.061-2.685 2.506-2.685 1.4 0 2.25.914 2.25 2.455V314h1.508v-6.239c0-2.505-1.336-3.707-3.323-3.707-1.483 0-2.404.665-2.864 1.662h-.128v-1.534h-1.457V314h1.508v-5.906Zm9.021 5.906h1.509v-9.818h-1.509V314Zm.767-11.455c.588 0 1.074-.46 1.074-1.022 0-.563-.486-1.023-1.074-1.023-.588 0-1.074.46-1.074 1.023 0 .562.486 1.022 1.074 1.022Zm7.774 1.637h-2.096v-2.352h-1.509v2.352h-1.483v1.278h1.483v6.137c0 1.713 1.381 2.531 2.659 2.531.563 0 .921-.102 1.125-.179l-.306-1.355c-.128.025-.333.076-.665.076-.665 0-1.304-.204-1.304-1.482v-5.728h2.096v-1.278Zm3.241 13.5c1.362 0 2.32-.722 2.889-2.25l4.181-11.225-1.649-.025-2.711 7.824h-.102l-2.71-7.824h-1.637l3.631 9.869-.281.767c-.55 1.496-1.227 1.637-2.327 1.355l-.383 1.33c.153.077.588.179 1.099.179ZM295.441 314h1.585v-5.855h5.676v-1.406h-5.676v-4.424h6.264v-1.406h-7.849V314Zm13.755.205c1.995 0 3.452-.998 3.912-2.481l-1.457-.409c-.384 1.023-1.272 1.534-2.455 1.534-1.77 0-2.991-1.144-3.061-3.247h7.127v-.639c0-3.656-2.174-4.909-4.219-4.909-2.659 0-4.423 2.097-4.423 5.114s1.738 5.037 4.576 5.037Zm-3.061-5.907c.102-1.527 1.182-2.889 2.908-2.889 1.636 0 2.685 1.227 2.685 2.889h-5.593Zm13.538 5.907c1.994 0 3.452-.998 3.912-2.481l-1.458-.409c-.383 1.023-1.272 1.534-2.454 1.534-1.771 0-2.992-1.144-3.062-3.247h7.127v-.639c0-3.656-2.173-4.909-4.218-4.909-2.66 0-4.424 2.097-4.424 5.114s1.739 5.037 4.577 5.037Zm-3.062-5.907c.102-1.527 1.183-2.889 2.909-2.889 1.636 0 2.684 1.227 2.684 2.889h-5.593Zm13.129 5.907c1.892 0 2.532-1.177 2.864-1.714h.179V314h1.457v-13.091h-1.508v4.832h-.128c-.332-.511-.92-1.687-2.838-1.687-2.48 0-4.193 1.969-4.193 5.062 0 3.12 1.713 5.089 4.167 5.089Zm.205-1.356c-1.892 0-2.864-1.661-2.864-3.758 0-2.071.946-3.682 2.864-3.682 1.841 0 2.812 1.483 2.812 3.682 0 2.224-.997 3.758-2.812 3.758Zm7.472 1.151h1.458v-1.509h.179c.332.537.971 1.714 2.863 1.714 2.455 0 4.168-1.969 4.168-5.089 0-3.093-1.713-5.062-4.193-5.062-1.918 0-2.506 1.176-2.838 1.687h-.128v-4.832h-1.509V314Zm1.483-4.909c0-2.199.972-3.682 2.813-3.682 1.917 0 2.863 1.611 2.863 3.682 0 2.097-.971 3.758-2.863 3.758-1.816 0-2.813-1.534-2.813-3.758Zm12.382 5.139c1.713 0 2.608-.92 2.914-1.56h.077V314h1.509v-6.469c0-3.119-2.378-3.477-3.631-3.477-1.483 0-3.171.511-3.938 2.301l1.432.511c.333-.715 1.119-1.482 2.557-1.482 1.387 0 2.071.735 2.071 1.994v.051c0 .729-.741.665-2.531.895-1.822.236-3.81.639-3.81 2.889 0 1.918 1.483 3.017 3.35 3.017Zm.23-1.355c-1.202 0-2.071-.537-2.071-1.585 0-1.151 1.048-1.509 2.224-1.662.639-.077 2.352-.256 2.608-.563v1.381c0 1.227-.972 2.429-2.761 2.429Zm11.012 1.33c2.173 0 3.605-1.33 3.86-3.069h-1.508c-.281 1.074-1.176 1.713-2.352 1.713-1.79 0-2.941-1.483-2.941-3.758 0-2.225 1.176-3.682 2.941-3.682 1.329 0 2.122.818 2.352 1.713h1.508c-.255-1.841-1.815-3.068-3.886-3.068-2.659 0-4.423 2.097-4.423 5.088 0 2.94 1.687 5.063 4.449 5.063Zm6.066-.205h1.508v-3.675l1.055-.978 3.675 4.653h1.918l-4.455-5.625 4.148-4.193h-1.866l-4.296 4.372h-.179v-7.645h-1.508V314Z" fill="#000"/><path d="M283.092 580h3.58v-6.679h3.784c4.565 0 7.016-2.741 7.016-6.544 0-3.773-2.422-6.543-6.968-6.543h-7.412V580Zm3.58-9.623v-7.151h3.282c2.683 0 3.87 1.447 3.87 3.551s-1.187 3.6-3.851 3.6h-3.301ZM300.428 580h3.494v-8.715c0-1.882 1.419-3.214 3.339-3.214.589 0 1.323.106 1.622.202v-3.214a8.39 8.39 0 0 0-1.255-.096c-1.698 0-3.117.965-3.658 2.683h-.154v-2.471h-3.388V580Zm16.632.29c4.343 0 7.104-3.06 7.104-7.644 0-4.595-2.761-7.664-7.104-7.664s-7.103 3.069-7.103 7.664c0 4.584 2.76 7.644 7.103 7.644Zm.02-2.799c-2.404 0-3.581-2.143-3.581-4.855 0-2.712 1.177-4.884 3.581-4.884 2.364 0 3.542 2.172 3.542 4.884s-1.178 4.855-3.542 4.855Zm15.551 2.77c2.548 0 3.696-1.516 4.246-2.597h.213V580h3.436v-19.766h-3.504v7.393h-.145c-.531-1.072-1.621-2.645-4.237-2.645-3.426 0-6.119 2.683-6.119 7.625 0 4.884 2.616 7.654 6.11 7.654Zm.974-2.867c-2.306 0-3.522-2.027-3.522-4.806 0-2.761 1.196-4.739 3.522-4.739 2.249 0 3.485 1.862 3.485 4.739 0 2.876-1.255 4.806-3.485 4.806Zm20.093-3.629c0 2.259-1.612 3.378-3.156 3.378-1.68 0-2.799-1.187-2.799-3.069v-8.899h-3.494v9.439c0 3.562 2.027 5.579 4.941 5.579 2.22 0 3.784-1.168 4.459-2.828h.155V580h3.387v-14.825h-3.493v8.59Zm13.553 6.525c3.725 0 6.1-2.211 6.35-5.357h-3.339c-.299 1.592-1.448 2.509-2.982 2.509-2.182 0-3.591-1.824-3.591-4.854 0-2.992 1.438-4.788 3.591-4.788 1.679 0 2.712 1.081 2.982 2.51h3.339c-.241-3.214-2.75-5.328-6.37-5.328-4.343 0-7.084 3.137-7.084 7.664 0 4.487 2.674 7.644 7.104 7.644Zm16.622-15.115h-2.924v-3.552h-3.494v3.552h-2.104v2.703h2.104v8.242c-.019 2.789 2.007 4.16 4.633 4.083a6.992 6.992 0 0 0 2.055-.348l-.588-2.731a4.373 4.373 0 0 1-1.023.135c-.879 0-1.583-.309-1.583-1.718v-7.663h2.924v-2.703Z" fill="#3C85FF"/><path d="M278.195 605c3.989 0 6.239-2.48 6.239-6.571 0-4.065-2.25-6.52-6.06-6.52h-4.218V605h4.039Zm-2.454-1.406v-10.279h2.531c3.068 0 4.628 1.944 4.628 5.114 0 3.196-1.56 5.165-4.807 5.165h-2.352Zm15.264 1.611c1.994 0 3.452-.998 3.912-2.481l-1.457-.409c-.384 1.023-1.272 1.534-2.455 1.534-1.771 0-2.992-1.144-3.062-3.247h7.127v-.639c0-3.656-2.173-4.909-4.218-4.909-2.66 0-4.424 2.097-4.424 5.114s1.739 5.037 4.577 5.037Zm-3.062-5.907c.102-1.527 1.183-2.889 2.909-2.889 1.636 0 2.684 1.227 2.684 2.889h-5.593Zm17.152-4.116h-1.637l-2.71 7.824h-.102l-2.71-7.824h-1.637L299.93 605h1.534l3.631-9.818Zm5.756 10.023c1.994 0 3.451-.998 3.912-2.481l-1.458-.409c-.383 1.023-1.272 1.534-2.454 1.534-1.771 0-2.992-1.144-3.062-3.247h7.127v-.639c0-3.656-2.173-4.909-4.219-4.909-2.659 0-4.423 2.097-4.423 5.114s1.739 5.037 4.577 5.037Zm-3.062-5.907c.102-1.527 1.182-2.889 2.908-2.889 1.637 0 2.685 1.227 2.685 2.889h-5.593Zm10.93-7.389h-1.508V605h1.508v-13.091Zm6.752 13.296c2.659 0 4.449-2.02 4.449-5.063 0-3.068-1.79-5.088-4.449-5.088s-4.449 2.02-4.449 5.088c0 3.043 1.79 5.063 4.449 5.063Zm0-1.356c-2.02 0-2.94-1.738-2.94-3.707 0-1.969.92-3.733 2.94-3.733s2.94 1.764 2.94 3.733-.92 3.707-2.94 3.707Zm6.751 4.833h1.509v-5.191h.128c.332.537.971 1.714 2.863 1.714 2.455 0 4.168-1.969 4.168-5.089 0-3.093-1.713-5.062-4.193-5.062-1.918 0-2.506 1.176-2.838 1.687h-.179v-1.559h-1.458v13.5Zm1.483-8.591c0-2.199.972-3.682 2.813-3.682 1.918 0 2.864 1.611 2.864 3.682 0 2.097-.972 3.758-2.864 3.758-1.815 0-2.813-1.534-2.813-3.758Zm9.486 4.909h1.509v-6.136c0-1.439 1.048-2.455 2.224-2.455 1.144 0 1.943.748 1.943 1.867V605h1.534v-6.392c0-1.266.793-2.199 2.174-2.199 1.074 0 1.994.569 1.994 2.02V605h1.509v-6.571c0-2.308-1.24-3.375-2.992-3.375-1.406 0-2.435.646-2.94 1.662h-.102c-.486-1.048-1.343-1.662-2.634-1.662-1.278 0-2.224.614-2.634 1.662h-.127v-1.534h-1.458V605Zm19.761.205c1.995 0 3.452-.998 3.912-2.481l-1.457-.409c-.384 1.023-1.272 1.534-2.455 1.534-1.77 0-2.991-1.144-3.062-3.247h7.128v-.639c0-3.656-2.174-4.909-4.219-4.909-2.659 0-4.423 2.097-4.423 5.114s1.738 5.037 4.576 5.037Zm-3.062-5.907c.103-1.527 1.183-2.889 2.909-2.889 1.636 0 2.684 1.227 2.684 2.889h-5.593Zm10.931-.204c0-1.713 1.061-2.685 2.506-2.685 1.399 0 2.25.914 2.25 2.455V605h1.508v-6.239c0-2.505-1.336-3.707-3.324-3.707-1.483 0-2.403.665-2.863 1.662h-.128v-1.534h-1.458V605h1.509v-5.906Zm13.291-3.912h-2.097v-2.352h-1.509v2.352h-1.483v1.278h1.483v6.137c0 1.713 1.381 2.531 2.659 2.531.563 0 .921-.102 1.125-.179l-.306-1.355c-.128.025-.333.076-.665.076-.665 0-1.304-.204-1.304-1.482v-5.728h2.097v-1.278ZM321.49 630c3.989 0 6.239-2.48 6.239-6.571 0-4.065-2.25-6.52-6.06-6.52h-4.219V630h4.04Zm-2.454-1.406v-10.279h2.531c3.068 0 4.628 1.944 4.628 5.114 0 3.196-1.56 5.165-4.807 5.165h-2.352Zm15.264 1.611c1.994 0 3.452-.998 3.912-2.481l-1.458-.409c-.383 1.023-1.272 1.534-2.454 1.534-1.771 0-2.992-1.144-3.062-3.247h7.127v-.639c0-3.656-2.173-4.909-4.219-4.909-2.659 0-4.423 2.097-4.423 5.114s1.739 5.037 4.577 5.037Zm-3.062-5.907c.102-1.527 1.183-2.889 2.908-2.889 1.637 0 2.685 1.227 2.685 2.889h-5.593Zm10.931-7.389h-1.509V630h1.509v-13.091ZM344.931 630h1.509v-9.818h-1.509V630Zm.768-11.455c.588 0 1.073-.46 1.073-1.022 0-.563-.485-1.023-1.073-1.023-.589 0-1.074.46-1.074 1.023 0 .562.485 1.022 1.074 1.022Zm11.532 1.637h-1.636l-2.71 7.824h-.103l-2.71-7.824h-1.636l3.631 9.818h1.534l3.63-9.818Zm5.756 10.023c1.995 0 3.452-.998 3.912-2.481l-1.457-.409c-.384 1.023-1.272 1.534-2.455 1.534-1.77 0-2.991-1.144-3.061-3.247h7.127v-.639c0-3.656-2.174-4.909-4.219-4.909-2.659 0-4.423 2.097-4.423 5.114s1.738 5.037 4.576 5.037Zm-3.061-5.907c.102-1.527 1.182-2.889 2.908-2.889 1.636 0 2.685 1.227 2.685 2.889h-5.593Zm9.421 5.702h1.509v-6.213c0-1.33 1.048-2.301 2.48-2.301.403 0 .818.076.921.102v-1.534a14.28 14.28 0 0 0-.793-.026c-1.176 0-2.199.665-2.557 1.637h-.102v-1.483h-1.458V630Zm7.968 3.682c1.362 0 2.32-.722 2.889-2.25l4.181-11.225-1.649-.025-2.711 7.824h-.102l-2.71-7.824h-1.636l3.63 9.869-.281.767c-.55 1.496-1.227 1.637-2.327 1.355l-.383 1.33c.153.077.588.179 1.099.179Zm-64.59 8.227h-1.585V655h1.585v-13.091Zm4.483 7.185c0-1.713 1.061-2.685 2.505-2.685 1.4 0 2.25.914 2.25 2.455V655h1.509v-6.239c0-2.505-1.336-3.707-3.324-3.707-1.483 0-2.404.665-2.864 1.662h-.128v-1.534h-1.457V655h1.509v-5.906Zm16.697-3.912h-1.636l-2.71 7.824h-.103l-2.71-7.824h-1.636l3.63 9.818h1.535l3.63-9.818Zm5.628 10.023c2.659 0 4.449-2.02 4.449-5.063 0-3.068-1.79-5.088-4.449-5.088s-4.448 2.02-4.448 5.088c0 3.043 1.789 5.063 4.448 5.063Zm0-1.356c-2.02 0-2.94-1.738-2.94-3.707 0-1.969.92-3.733 2.94-3.733s2.941 1.764 2.941 3.733-.921 3.707-2.941 3.707Zm6.752 1.151h1.509v-9.818h-1.509V655Zm.767-11.455c.588 0 1.074-.46 1.074-1.022 0-.563-.486-1.023-1.074-1.023-.588 0-1.074.46-1.074 1.023 0 .562.486 1.022 1.074 1.022Zm7.493 11.66c2.173 0 3.605-1.33 3.861-3.069h-1.509c-.281 1.074-1.176 1.713-2.352 1.713-1.79 0-2.94-1.483-2.94-3.758 0-2.225 1.176-3.682 2.94-3.682 1.33 0 2.122.818 2.352 1.713h1.509c-.256-1.841-1.815-3.068-3.886-3.068-2.66 0-4.424 2.097-4.424 5.088 0 2.94 1.688 5.063 4.449 5.063Zm6.066-.205h1.509v-9.818h-1.509V655Zm.767-11.455c.588 0 1.074-.46 1.074-1.022 0-.563-.486-1.023-1.074-1.023-.588 0-1.074.46-1.074 1.023 0 .562.486 1.022 1.074 1.022Zm5.013 5.549c0-1.713 1.061-2.685 2.506-2.685 1.4 0 2.25.914 2.25 2.455V655h1.508v-6.239c0-2.505-1.336-3.707-3.324-3.707-1.482 0-2.403.665-2.863 1.662h-.128v-1.534h-1.457V655h1.508v-5.906Zm12.984 9.792c2.352 0 4.244-1.074 4.244-3.605v-10.099h-1.457v1.559h-.153c-.333-.511-.947-1.687-2.864-1.687-2.48 0-4.193 1.969-4.193 4.986 0 3.068 1.789 4.807 4.167 4.807 1.918 0 2.532-1.125 2.864-1.662h.128v1.994c0 1.636-1.151 2.378-2.736 2.378-1.783 0-2.41-.94-2.813-1.483l-1.201.844c.613 1.029 1.822 1.968 4.014 1.968Zm-.051-5.395c-1.892 0-2.864-1.431-2.864-3.477 0-1.994.946-3.605 2.864-3.605 1.841 0 2.812 1.483 2.812 3.605 0 2.174-.997 3.477-2.812 3.477Z" fill="#000"/><path fill-rule="evenodd" clip-rule="evenodd" d="M1378.35 223.843c-3.82-3.849-6.01-5.854-10.56-5.89h-8.85c-3.83 0-6.94-3.044-6.94-6.799 0-3.754 3.11-6.798 6.94-6.798h8.88c4.12.005 6.44-1.164 10.56-5.157.51-.492 1.38.006 1.38.658v23.341c0 .668-.9 1.156-1.41.645Zm-18.76-17.903c-.28 0-.51.222-.51.496v9.418c0 .274.23.496.51.496s.51-.222.51-.496v-9.418a.504.504 0 0 0-.51-.496Z" fill="#fff"/><path d="M1387.93 206.245c.13.195.08.459-.12.589l-2.61 1.7a.44.44 0 0 1-.6-.118.421.421 0 0 1 .12-.589l2.61-1.7a.44.44 0 0 1 .6.118ZM1384.53 211.579c0-.234.19-.425.43-.425h2.61a.426.426 0 1 1 0 .85h-2.61c-.24 0-.43-.19-.43-.425ZM1384.6 214.318a.44.44 0 0 1 .6-.118l2.61 1.7c.2.13.25.394.12.589a.44.44 0 0 1-.6.118l-2.61-1.7a.421.421 0 0 1-.12-.589ZM1383.23 211.579c0 1.817-1.06 3.391-2.6 4.164v-8.328c1.54.774 2.6 2.348 2.6 4.164ZM1362.79 218.802c-.6 0-1.02.59-.81 1.145l3.21 8.498c.12.334.45.555.81.555h3.84c.6 0 1.02-.59.81-1.145l-1.73-4.804v-3.694a.873.873 0 0 0-.82-.555h-5.31Z" fill="#fff"/><path fill-rule="evenodd" clip-rule="evenodd" d="M1380.38 556.546a1.299 1.299 0 0 0-.48 1.765l.28.471c-.16.069-.34.142-.52.208-.36.135-.64.203-.78.203l-.06-.008a12.633 12.633 0 0 1-.8-.176l-.53-.13c-.38-.096-.82-.206-1.28-.315-1.38-.323-3.06-.663-4.43-.663h-.01c-1.29 0-2.76 0-3.99.082-.62.041-1.2.104-1.67.204-.24.05-.47.112-.67.193-.2.077-.41.188-.58.356-.1.109-.22.27-.34.433-.03.047-.07.098-.1.152a.649.649 0 0 0-.59-.095c-.22.07-.9.17-1.81.113-.79-.049-1.69-.211-2.53-.568l.08-.131c.35-.617.14-1.407-.48-1.764l-3.24-1.873a1.298 1.298 0 0 0-1.77.473l-7.16 12.403c-.35.618-.14 1.408.48 1.765l3.24 1.873c.62.356 1.41.145 1.76-.473l.44-.75 2.05 2.571-.31.433a2.576 2.576 0 0 0 .55 3.61c.43.315.93.477 1.42.498-.31 1.02.04 2.168.95 2.834.62.456 1.38.593 2.08.44.06.712.42 1.394 1.04 1.85.91.666 2.11.651 2.99.048a2.582 2.582 0 0 0 4.51.643l.47-.644c.23.128.54.292.91.456.76.339 1.83.701 2.93.701.87 0 1.56-.439 2.05-.901.39-.363.69-.777.91-1.093a.75.75 0 0 0 .06.024c1.12.374 2.21.229 2.92-.479.49-.491.71-1.166.68-1.908.74.036 1.41-.185 1.91-.676.6-.602.79-1.48.61-2.421.13.018.26.027.38.027.44 0 .85-.111 1.21-.35.35-.238.62-.576.82-.976.35-.688.32-1.398.13-2.013l2.7-2.701.25.447c.36.618 1.15.83 1.77.473l3.24-1.873c.62-.357.83-1.147.48-1.764l-7.16-12.404a1.299 1.299 0 0 0-1.77-.473l-3.24 1.873Zm-26.85 12.548c.01.009.02.019.02.029l2.18 2.713a2.576 2.576 0 0 1 3.22-.138c.38.279.66.641.84 1.043l.2-.279a2.585 2.585 0 0 1 4.56 2.277 2.58 2.58 0 0 1 2.36 3.332c.5.021.99.183 1.42.497.93.68 1.27 1.863.92 2.899.2.109.46.247.77.385.69.307 1.57.591 2.41.591.41 0 .8-.207 1.17-.552.24-.228.45-.489.62-.734l-4.02-2.012a.644.644 0 0 1-.29-.866.65.65 0 0 1 .87-.289l5.12 2.562c.79.251 1.3.076 1.56-.181.23-.235.4-.685.23-1.367l-5.58-3.101a.648.648 0 0 1 .63-1.129l5.76 3.199c.78.245 1.29.07 1.54-.185.26-.261.44-.786.17-1.599a.742.742 0 0 1-.02-.361 9.424 9.424 0 0 1-1.01-.593l-5.16-3.224a.646.646 0 0 1-.2-.89.643.643 0 0 1 .89-.205l5.16 3.229.02.01c.93.625 1.61.861 2.06.861a.84.84 0 0 0 .49-.134c.13-.086.26-.232.39-.478.2-.407.15-.884-.08-1.36-.25-.487-.64-.859-.93-1.003-.02-.012-.04-.025-.07-.04l-11.48-7.655-.12-.016-.07-.01c-.07-.01-.12-.018-.18-.024a1.524 1.524 0 0 0-.55.044c-.51.127-1.39.542-2.98 1.815-1.38 1.107-2.6 1.428-3.6 1.227a2.74 2.74 0 0 1-1.9-1.442.644.644 0 0 1 .01-.603c.54-.971 1.38-2.462 2.16-3.776.2-.341.4-.672.58-.98-.45.062-1.04.087-1.68.047-.93-.058-2.04-.257-3.1-.731l-5.31 9.197Zm26.58-8.892c.26-.094.51-.201.71-.296l5.32 9.203-2.68 2.674a3.32 3.32 0 0 0-1.02-.877l-11.59-7.727a.655.655 0 0 0-.37-.111 1.531 1.531 0 0 1-.15-.016l-.04-.007a4.562 4.562 0 0 0-.26-.035 2.811 2.811 0 0 0-.99.077c-.78.196-1.84.75-3.48 2.06-1.2.96-2.03 1.07-2.53.969a1.46 1.46 0 0 1-.83-.49c.53-.953 1.27-2.252 1.95-3.409.38-.652.75-1.254 1.04-1.724.15-.235.28-.432.39-.584.11-.162.18-.239.2-.26 0-.005.04-.032.14-.07.11-.043.26-.087.45-.128.39-.081.9-.139 1.5-.179 1.18-.079 2.61-.079 3.91-.079 1.21 0 2.76.305 4.13.628a113.945 113.945 0 0 1 1.8.443c.25.061.47.114.66.152.17.034.36.068.51.068.39 0 .86-.147 1.23-.282Zm-15.38 18.909-.01.015-.76 1.042-.02.015-.75 1.027c-.42.575-1.23.7-1.8.278a1.289 1.289 0 0 1-.28-1.805l2.29-3.126a1.29 1.29 0 1 1 2.08 1.527l-.75 1.027Zm.26 1.831c-.41.574-.29 1.375.29 1.794.57.422 1.38.297 1.8-.278l.76-1.042a1.288 1.288 0 1 0-2.07-1.537l-.78 1.063Zm-7.29-5.354.77-1.042a1.3 1.3 0 0 0-.28-1.806 1.297 1.297 0 0 0-1.81.279l-.76 1.042c-.42.576-.3 1.384.28 1.805.57.422 1.38.297 1.8-.278Zm.28 1.805c-.42.576-.3 1.384.28 1.805.58.422 1.38.297 1.81-.278l3.05-4.168a1.29 1.29 0 0 0-.28-1.806 1.299 1.299 0 0 0-1.81.279l-3.05 4.168ZM143.625 553.227a1.798 1.798 0 0 1 1.75 0l13.676 7.595a1.851 1.851 0 0 1 .949 1.625v15.106c0 .677-.364 1.3-.949 1.625l-13.676 7.595a1.798 1.798 0 0 1-1.75 0l-13.676-7.595a1.857 1.857 0 0 1-.949-1.625v-15.106a1.851 1.851 0 0 1 .949-1.625l13.676-7.595Zm-11.698 9.587a.535.535 0 0 0-.724.214.528.528 0 0 0 .215.72l12.827 6.907a.542.542 0 0 0 .51 0l12.827-6.907a.53.53 0 0 0 .216-.72.536.536 0 0 0-.725-.214l-12.573 6.769-12.573-6.769Zm13.108 9.374a.534.534 0 0 0-1.069 0V584c0 .293.239.531.534.531a.533.533 0 0 0 .535-.531v-11.812ZM145.5 198.5h-.007c-6.75.006-12.226 5.508-12.476 12.363-1.96.082-3.071.669-3.605 1.743-.27.542-.363 1.157-.396 1.77-.022.421-.017.877-.011 1.33.002.198.004.395.004.588 0 1.346.195 2.457.948 3.203.749.743 1.928 1.003 3.551 1.003h1.992a1.5 1.5 0 0 0 1.5-1.5v-6.647a1.5 1.5 0 0 0-1.5-1.5h-1.482c.166-4.11 2.358-7.671 5.566-9.662l.179.321a.501.501 0 0 0 .663.202 11.168 11.168 0 0 1 5.074-1.214c1.822 0 3.544.437 5.074 1.214a.501.501 0 0 0 .663-.202l.179-.321c3.208 1.991 5.401 5.552 5.566 9.662H155.5a1.5 1.5 0 0 0-1.5 1.5V219a1.5 1.5 0 0 0 1.5 1.5h1.429c-.172 1.043-.655 2.398-1.627 3.553-1.065 1.265-2.735 2.315-5.302 2.435V226a.5.5 0 0 0-.5-.5H146a.5.5 0 0 0-.5.5v2a.5.5 0 0 0 .5.5h3.5a.5.5 0 0 0 .5-.5v-.511c2.872-.123 4.816-1.306 6.067-2.792a8.544 8.544 0 0 0 1.875-4.204c1.393-.047 2.423-.324 3.101-.996.752-.746.947-1.857.947-3.203 0-.193.003-.39.005-.588.005-.452.011-.909-.011-1.33-.033-.613-.126-1.228-.396-1.77-.534-1.074-1.646-1.661-3.605-1.743-.25-6.856-5.727-12.358-12.478-12.363h-.005Zm-11.492 21v-7.647h1.492a.5.5 0 0 1 .5.5V219a.5.5 0 0 1-.5.5h-1.492ZM155 212.353a.5.5 0 0 1 .5-.5h1.492v7.647H155.5a.5.5 0 0 1-.5-.5v-6.647Zm-8.5 15.147v-1h2.5v1h-2.5Z" fill="#fff"/><defs><clipPath id="a"><path fill="#fff" transform="translate(757 50) rotate(45)" d="M0 0h531.744v531.744H0z"/></clipPath></defs></svg>