<svg width="160" height="64" viewBox="0 0 160 64" fill="none" xmlns="http://www.w3.org/2000/svg">
<g clip-path="url(#clip0_532_279)">
<path d="M1.36813 46.9631H10.5073V26.4513L20.1595 46.987H27.6295L37.2099 26.4034V46.9631H47.3033V16.9701H32.589L24.3357 34.8038L16.0345 16.9222H1.36813V46.9631Z" fill="#BDA388"/>
<path d="M54.3902 16.994V46.9528H82.95V38.7337H64.3024V16.994H54.3902Z" fill="#BDA388"/>
<path d="M158.598 46.9152H128.307V16.994H158.632V24.3273H138.182V28.4556H153.436V35.2347H138.182V39.729H158.598V46.9152Z" fill="#BDA388"/>
<path d="M90.0609 36.8183L86.9655 43.7103C86.9655 43.7103 94.3705 47.654 104.984 47.654C115.597 47.654 122.007 43.7103 122.007 37.5948C122.007 31.4792 117.766 29.6356 107.122 28.0896C98.4989 26.8378 98.6836 26.3931 98.6836 25.4354C98.6836 24.4778 100.011 23.5919 104.652 23.5919C109.293 23.5919 115.45 25.3602 118.21 26.5778L121.453 19.7987C121.453 19.7987 115.337 16.3681 105.463 16.3681C95.5882 16.3681 88.6962 20.1271 88.6962 26.3897C88.6962 32.6524 95.3659 34.5335 102.183 35.6007C108.999 36.6678 112.132 36.7807 112.132 38.2549C112.132 39.729 110.364 40.3926 105.794 40.3926C101.225 40.3926 95.9576 39.5067 90.0609 36.8183Z" fill="#BDA388"/>
</g>
<defs>
<clipPath id="clip0_532_279">
<rect width="157.264" height="31.2824" fill="white" transform="translate(1.36813 16.3681)"/>
</clipPath>
</defs>
</svg>
