<svg width="160" height="64" viewBox="0 0 160 64" fill="none" xmlns="http://www.w3.org/2000/svg">
<g clip-path="url(#clip0_532_233)">
<path d="M32.7839 46.6069C32.6615 46.6069 32.5411 46.5845 32.4228 46.5417L17.7438 40.9937C17.2194 40.7957 16.9521 40.2101 17.148 39.6837L19.874 32.3707L21.2187 34.605L19.4149 39.445L31.7739 44.1156L31.8208 38.0085C31.8249 37.4596 32.2636 37.0127 32.8105 36.9964L40.5152 36.7699C41.6273 36.3782 42.3373 35.8803 42.6271 35.2886C42.8474 34.8417 42.8617 34.2867 42.672 33.597L37.3892 30.3303C37.2444 30.2405 37.124 30.116 37.0403 29.9691C36.0752 28.2776 34.6244 26.9533 32.6064 25.9208C32.2065 25.7168 31.9882 25.274 32.0677 24.8333C32.484 22.5092 32.5289 20.7361 31.5229 19.3649C29.4702 20.8993 27.4482 23.6274 25.069 28.0409L24.5854 28.9387L23.2734 27.0717C26.1015 21.8257 28.5296 18.767 31.1495 17.153C31.5413 16.9123 32.0453 16.9612 32.3799 17.2755C34.5244 19.2751 34.5877 21.8787 34.1959 24.464C36.1344 25.576 37.6382 27.0084 38.6768 28.7285L44.0676 32.0626C44.2676 32.185 44.4186 32.3748 44.4941 32.5952C44.9695 33.9623 44.9573 35.1723 44.4574 36.1884C43.8983 37.327 42.774 38.1656 41.0212 38.7512C40.9274 38.7839 40.8274 38.8002 40.7274 38.8043L33.8511 39.0063L33.8001 45.5928C33.798 45.9275 33.6328 46.2376 33.3573 46.4274C33.1859 46.5457 32.9839 46.6069 32.7799 46.6069H32.7839Z" fill="#3C5D92"/>
<path d="M27.1441 39.9796C26.2443 34.7682 23.9937 30.0222 20.4535 25.8739C18.2947 21.9379 16.3155 19.4465 14.2281 18.0406C13.8057 17.757 13.2385 17.8264 12.8977 18.2059C11.6551 19.5914 10.8756 21.5053 10.5287 24.0436C6.30908 25.3699 3.63813 28.753 2.57709 34.1153L1.11409 36.5006C0.965136 36.7434 0.924327 37.0352 1.00186 37.3106C1.0794 37.5841 1.26508 37.8126 1.5181 37.9432C1.87314 38.1248 2.18329 38.4411 2.48119 38.8226L0.134672 40.4223C-0.00407873 40.5182 -0.0408069 40.708 0.0550944 40.8467C0.114267 40.9345 0.210169 40.9794 0.30811 40.9794C0.367284 40.9794 0.426457 40.9631 0.479508 40.9263L2.84235 39.3164C2.95662 39.4817 3.06884 39.6531 3.18311 39.8265C3.20351 39.8571 3.22392 39.8877 3.24432 39.9204L1.74051 41.8751C1.63848 42.0098 1.66297 42.2016 1.7956 42.3036C1.85069 42.3465 1.91599 42.3669 1.98128 42.3669C2.0731 42.3669 2.16288 42.3261 2.22409 42.2485L3.60344 40.455C3.74831 40.6611 3.89727 40.8692 4.05846 41.0692L3.03619 43.1402C2.9607 43.2912 3.02395 43.4748 3.17495 43.5503C3.21779 43.5728 3.26473 43.583 3.30962 43.583C3.42184 43.583 3.52998 43.5197 3.58508 43.4116L4.49512 41.567C4.97462 42.0649 5.54595 42.4893 6.27439 42.7382C6.43763 42.7933 6.61107 42.8076 6.78042 42.777C7.92512 42.5771 8.90657 42.1567 9.77173 41.7854C10.2308 41.5874 10.6777 41.3977 11.0572 41.2854C11.0939 42.4709 11.1307 44.3971 11.0225 45.4847C10.9899 45.8091 11.1143 46.1295 11.3572 46.3458C11.5469 46.5151 11.7897 46.6049 12.0366 46.6049C12.108 46.6049 12.1795 46.5967 12.2509 46.5825C13.3792 46.3417 17.1806 45.4582 18.7314 44.2523L19.5373 43.6258L17.4785 42.6423C16.8337 43.1443 15.1606 43.7666 13.1262 44.2829C13.165 42.473 13.063 40.2795 13.0569 40.1612C13.0344 39.7061 12.7141 39.3205 12.2713 39.2164C11.1796 38.9593 10.1043 39.4205 8.96779 39.9081C8.24955 40.2162 7.51091 40.5325 6.70697 40.71C5.97649 40.3509 5.44393 39.547 4.88484 38.7002C4.43186 38.0126 3.96664 37.3106 3.35042 36.7536L4.41146 35.0233C4.47675 34.9172 4.52164 34.8009 4.54409 34.6785C5.48474 29.7038 7.82922 26.8084 11.7081 25.827C12.1244 25.7209 12.4284 25.3679 12.4733 24.9414C12.6753 22.9724 13.1262 21.4482 13.8485 20.3137C15.4054 21.6359 17.0031 23.8171 18.7109 26.9452C18.7456 27.0084 18.7864 27.0676 18.8334 27.1206C22.1716 31.0056 23.9896 33.7092 24.8323 38.588L25.0425 39.8061L27.3176 40.9855L27.1441 39.9796Z" fill="#97BF50"/>
<path d="M61.085 25.7882C60.2035 25.3108 59.1813 25.07 58.0182 25.07H51.3704V42.322H54.4556V36.619H58.0182C59.1813 36.619 60.2035 36.3782 61.085 35.8966C61.9665 35.4151 62.6521 34.7417 63.1479 33.8766C63.6417 33.0114 63.8886 32.0055 63.8886 30.8588V30.8343C63.8886 29.6794 63.6417 28.6694 63.1479 27.8042C62.6541 26.9391 61.9665 26.2678 61.085 25.7903V25.7882ZM60.7565 30.869C60.7565 31.9055 60.4525 32.7074 59.8424 33.2787C59.2323 33.8501 58.3692 34.1337 57.2551 34.1337H54.4576V27.5818H57.2551C58.3712 27.5818 59.2343 27.8654 59.8424 28.4306C60.4525 28.9958 60.7565 29.8018 60.7565 30.8445V30.869Z" fill="#97BF50"/>
<path d="M74.8805 30.1813C73.999 29.6508 72.9584 29.3856 71.7545 29.3856C70.5507 29.3856 69.4937 29.661 68.6041 30.2099C67.7144 30.7588 67.0268 31.5301 66.5351 32.5238C66.0454 33.5154 65.8005 34.6785 65.8005 36.0089V36.0211C65.8005 37.3596 66.0433 38.5207 66.5289 39.5001C67.0146 40.4795 67.7144 41.2385 68.6265 41.7711C69.5386 42.3057 70.6282 42.573 71.8953 42.573C72.7156 42.573 73.4502 42.4628 74.0949 42.2445C74.7397 42.0262 75.2988 41.7283 75.7681 41.3528C76.2374 40.9794 76.6129 40.557 76.8924 40.0918C77.1719 39.6245 77.3617 39.1491 77.4658 38.6635L77.4903 38.5329H74.7173L74.6928 38.6166C74.5969 38.9043 74.4275 39.1716 74.1847 39.4185C73.9419 39.6654 73.6318 39.8674 73.2584 40.0224C72.8829 40.1775 72.4503 40.255 71.9545 40.255C71.2934 40.255 70.7221 40.1102 70.2446 39.8184C69.7671 39.5266 69.3978 39.1083 69.1387 38.5635C68.8938 38.0493 68.7673 37.4331 68.753 36.7169H77.6208V35.7599C77.6208 34.4846 77.3842 33.3685 76.9087 32.4115C76.4333 31.4546 75.7559 30.7119 74.8764 30.1813H74.8805ZM70.2181 32.1422C70.6772 31.8586 71.1995 31.7178 71.7892 31.7178C72.3789 31.7178 72.885 31.8545 73.3318 32.13C73.7787 32.4054 74.1296 32.8176 74.3847 33.3665C74.5642 33.7521 74.6785 34.2071 74.7316 34.7295H68.7918C68.8469 34.2316 68.9632 33.7868 69.1407 33.4032C69.3999 32.8462 69.759 32.4258 70.216 32.1422H70.2181Z" fill="#97BF50"/>
<path d="M84.3298 26.4351H81.3059V29.6508H79.5123V31.9463H81.3059V38.892C81.3059 40.1999 81.6262 41.1386 82.269 41.714C82.9097 42.2873 83.8891 42.575 85.2032 42.575C85.5133 42.575 85.7949 42.5628 86.0459 42.5383C86.2968 42.5138 86.5111 42.4914 86.6845 42.4669V40.2306C86.5805 40.2387 86.4703 40.2489 86.356 40.2612C86.2397 40.2734 86.1071 40.2795 85.9561 40.2795C85.4215 40.2795 85.0175 40.1612 84.742 39.9265C84.4665 39.6919 84.3298 39.2675 84.3298 38.6533V31.9463H86.6845V29.6508H84.3298V26.4351Z" fill="#97BF50"/>
<path d="M99.1048 30.014C98.4355 29.5957 97.6418 29.3856 96.7256 29.3856C95.8094 29.3856 94.981 29.5937 94.3158 30.0079C93.6506 30.4221 93.1507 31.0118 92.8161 31.777H92.7569V25.07H89.7799V42.322H92.7569V35.0172C92.7569 34.403 92.8732 33.8644 93.1038 33.3971C93.3344 32.9298 93.6588 32.5646 94.0771 32.2973C94.4954 32.03 94.983 31.8974 95.5421 31.8974C96.395 31.8974 97.0561 32.1749 97.5275 32.7278C97.9988 33.2808 98.2335 34.046 98.2335 35.0172V42.322H101.211V34.4316C101.211 33.4114 101.027 32.5258 100.66 31.7709C100.292 31.0159 99.7761 30.4323 99.1048 30.014Z" fill="#3C5D92"/>
<path d="M113.135 30.1813C112.253 29.6508 111.213 29.3856 110.009 29.3856C108.805 29.3856 107.748 29.661 106.858 30.2099C105.969 30.7588 105.281 31.5301 104.789 32.5238C104.3 33.5154 104.055 34.6785 104.055 36.0089V36.0211C104.055 37.3596 104.298 38.5207 104.783 39.5001C105.269 40.4795 105.969 41.2385 106.881 41.7711C107.793 42.3057 108.883 42.573 110.15 42.573C110.97 42.573 111.705 42.4628 112.349 42.2445C112.994 42.0262 113.553 41.7283 114.023 41.3528C114.492 40.9794 114.867 40.557 115.147 40.0918C115.426 39.6245 115.616 39.1491 115.72 38.6635L115.745 38.5329H112.972L112.947 38.6166C112.851 38.9043 112.682 39.1716 112.439 39.4185C112.196 39.6654 111.886 39.8674 111.513 40.0224C111.137 40.1775 110.705 40.255 110.209 40.255C109.548 40.255 108.976 40.1102 108.499 39.8184C108.022 39.5266 107.652 39.1083 107.393 38.5635C107.148 38.0493 107.022 37.4331 107.007 36.7169H115.875V35.7599C115.875 34.4846 115.639 33.3685 115.163 32.4115C114.688 31.4546 114.01 30.7119 113.131 30.1813H113.135ZM108.472 32.1422C108.932 31.8586 109.454 31.7178 110.044 31.7178C110.633 31.7178 111.139 31.8545 111.586 32.13C112.033 32.4054 112.384 32.8176 112.639 33.3665C112.819 33.7521 112.933 34.2071 112.986 34.7295H107.046C107.101 34.2316 107.218 33.7868 107.395 33.4032C107.654 32.8462 108.013 32.4258 108.47 32.1422H108.472Z" fill="#3C5D92"/>
<path d="M126.906 29.914C126.129 29.5631 125.21 29.3876 124.151 29.3876C123.092 29.3876 122.162 29.559 121.384 29.9018C120.607 30.2446 119.999 30.7118 119.56 31.3056C119.122 31.8994 118.871 32.5707 118.807 33.3195L118.795 33.4624H121.546L121.57 33.3542C121.674 32.8849 121.937 32.4993 122.36 32.2014C122.782 31.9035 123.343 31.7525 124.045 31.7525C124.802 31.7525 125.382 31.9381 125.786 32.3075C126.188 32.6788 126.39 33.1828 126.39 33.8194V34.6907L123.078 34.8948C121.548 34.9825 120.362 35.3559 119.522 36.0129C118.681 36.6699 118.261 37.5616 118.261 38.6839V38.7084C118.261 39.4572 118.438 40.1204 118.793 40.6978C119.148 41.2752 119.646 41.7262 120.287 42.0486C120.927 42.371 121.668 42.5322 122.505 42.5322C123.062 42.5322 123.586 42.4444 124.076 42.2689C124.566 42.0935 125.002 41.8425 125.386 41.516C125.769 41.1895 126.08 40.8059 126.318 40.3693H126.39V42.3179H129.354V33.6031C129.354 32.7502 129.14 32.0096 128.716 31.3791C128.289 30.7506 127.687 30.2588 126.91 29.9079L126.906 29.914ZM125.992 38.9757C125.729 39.3735 125.371 39.6898 124.923 39.9204C124.472 40.151 123.96 40.2673 123.386 40.2673C122.733 40.2673 122.209 40.1183 121.815 39.8184C121.421 39.5184 121.223 39.1103 121.223 38.5921V38.5798C121.223 38.0779 121.419 37.6759 121.809 37.3719C122.199 37.0699 122.762 36.8944 123.494 36.8454L126.388 36.6659V37.6228C126.388 38.1248 126.257 38.5757 125.994 38.9736L125.992 38.9757Z" fill="#3C5D92"/>
<path d="M135.794 25.072H132.817V42.324H135.794V25.072Z" fill="#3C5D92"/>
<path d="M143.121 26.4351H140.097V29.6508H138.304V31.9463H140.097V38.892C140.097 40.1999 140.418 41.1386 141.061 41.714C141.701 42.2873 142.681 42.575 143.995 42.575C144.305 42.575 144.586 42.5628 144.837 42.5383C145.088 42.5138 145.303 42.4914 145.476 42.4669V40.2306C145.372 40.2387 145.262 40.2489 145.148 40.2612C145.031 40.2734 144.899 40.2795 144.748 40.2795C144.213 40.2795 143.809 40.1612 143.534 39.9265C143.258 39.6919 143.121 39.2675 143.121 38.6533V31.9463H145.476V29.6508H143.121V26.4351Z" fill="#3C5D92"/>
<path d="M159.449 31.7729C159.082 31.0199 158.566 30.4343 157.894 30.016C157.225 29.5977 156.431 29.3876 155.515 29.3876C154.599 29.3876 153.771 29.5957 153.105 30.0099C152.44 30.4241 151.94 31.0138 151.606 31.779H151.546V25.072H148.569V42.324H151.546V35.0192C151.546 34.405 151.663 33.8664 151.893 33.3991C152.124 32.9318 152.448 32.5666 152.867 32.2993C153.285 32.032 153.773 31.8994 154.332 31.8994C155.185 31.8994 155.846 32.1769 156.317 32.7298C156.788 33.2828 157.023 34.048 157.023 35.0192V42.324H160V34.4336C160 33.4134 159.816 32.5278 159.449 31.7729Z" fill="#3C5D92"/>
</g>
<defs>
<clipPath id="clip0_532_233">
<rect width="160" height="29.607" fill="white" transform="translate(0 17)"/>
</clipPath>
</defs>
</svg>
