<svg width="160" height="64" viewBox="0 0 160 64" fill="none" xmlns="http://www.w3.org/2000/svg">
<path d="M102.877 39.3904C102.512 39.8014 102.519 40.2602 102.477 40.6993C102.338 42.1644 102.22 43.6318 102.069 45.0961C101.932 46.4225 101.249 46.8206 100.059 46.2678C99.3465 45.9371 98.6455 45.5769 97.9604 45.1924C97.1598 44.7435 96.7153 43.992 96.6316 43.1146C96.4528 41.2461 96.3486 39.3699 96.2437 37.4953C96.0838 34.6311 96.2407 31.7721 96.5305 28.9253C96.8149 26.1256 97.0964 23.3174 97.571 20.5465C97.9838 18.1342 98.6614 15.7682 99.2288 13.3832C99.3616 12.8236 99.4929 12.2601 99.6785 11.7164C99.8354 11.2561 100.048 10.8102 100.275 10.3787C100.553 9.84785 101.079 9.59836 101.609 9.46338C102.303 9.28668 103.027 9.12668 103.737 9.13502C107.349 9.17597 110.882 9.72349 114.312 10.8974C115.822 11.4138 117.315 11.9636 118.709 12.7546C119.529 13.2194 120.283 13.7669 120.891 14.5003C121.276 14.9666 121.543 15.4899 121.699 16.0799C122.252 18.1653 122.714 20.2674 122.902 22.4226C122.946 22.9322 122.969 23.4441 122.996 23.9544C123.046 24.8933 122.637 25.6334 121.894 26.1369C121.357 26.5009 120.75 26.802 120.134 27.0022C118.248 27.6142 116.302 27.9357 114.327 28.0912C111.619 28.3043 108.914 28.5409 106.086 28.7767C106.236 29.0072 106.328 29.1832 106.45 29.3333C107.435 30.5406 108.494 31.6774 109.683 32.6875C111.783 34.4703 114.002 36.078 116.461 37.33C118.04 38.1338 119.703 38.7132 121.409 39.1728C122.104 39.3601 122.236 39.6043 121.964 40.2708C121.901 40.4271 121.819 40.5825 121.716 40.7145C120.393 42.4109 119.137 44.1603 117.579 45.6626C117.068 46.1555 116.544 46.2829 115.901 46.104C113.64 45.4738 111.462 44.6237 109.437 43.4331C107.349 42.2046 105.31 40.8889 103.249 39.6111C103.138 39.5451 103.03 39.4814 102.877 39.3904ZM104.435 25.6948C104.684 25.6683 104.81 25.6622 104.932 25.641C107.988 25.1094 110.993 24.3564 113.965 23.4744C114.531 23.3068 115.067 23.0323 115.606 22.7836C115.794 22.6964 115.972 22.5599 116.114 22.4067C116.47 22.023 116.458 21.6719 116.022 21.3875C115.654 21.1471 115.237 20.9636 114.818 20.824C112.883 20.1794 110.919 19.6304 108.9 19.3233C107.958 19.18 107.008 19.0723 106.058 19.0055C105.517 18.9676 105.458 19.0647 105.367 19.6114C105.165 20.8309 104.958 22.0503 104.769 23.2719C104.647 24.0462 104.554 24.8243 104.435 25.6948Z" fill="#C80835"/>
<path d="M137.003 40.8912C137.07 36.0712 137.729 31.754 139.501 27.659C139.797 26.9757 140.126 26.3008 140.51 25.6645C141.685 23.7186 143.731 22.842 145.968 23.2371C148.421 23.6709 150.506 24.8554 152.436 26.3713C152.787 26.6473 153.113 26.9545 153.466 27.229C154.353 27.9198 154.724 28.8746 154.818 29.9507C154.9 30.8925 154.789 31.8184 154.492 32.7269C153.602 35.4456 152.253 37.9261 150.656 40.2792C149.721 41.6563 148.723 42.9804 147.482 44.1035C145.796 45.6285 143.948 46.8388 141.636 47.1262C141.03 47.2021 140.405 47.2309 139.798 47.1778C138.637 47.0754 137.649 46.1722 137.394 45.0218C137.28 44.5039 137.22 43.97 137.175 43.44C137.093 42.464 137.041 41.4842 137.003 40.8912ZM142.915 32.6632C142.512 32.526 142.221 32.6936 142.193 33.2388C142.169 33.6839 142.159 34.1511 142.171 34.7183C142.183 35.2848 142.239 36.1531 142.408 36.9167C142.57 37.647 143.029 37.8813 143.745 37.7062C144.626 37.4908 145.442 37.1078 146.07 36.4557C146.943 35.551 146.978 34.6812 146.192 34.1829" fill="#C80835"/>
<path d="M134.415 29.5958C134.341 30.0841 134.234 30.7143 134.152 31.3483C133.852 33.6521 133.574 35.9597 133.262 38.262C132.964 40.4589 132.634 42.6521 132.315 44.8459C132.263 45.2046 132.22 45.5663 132.135 45.9167C131.875 46.9822 131.121 47.4607 130.076 47.149C128.913 46.8024 127.807 46.2898 126.803 45.602C126.21 45.1955 125.848 44.5866 125.665 43.8768C125.311 42.4989 125.26 41.0967 125.302 39.6847C125.342 38.3409 125.38 36.9971 125.412 35.6534C125.441 34.4158 125.467 33.1782 125.482 31.9405C125.486 31.5075 125.63 31.1617 125.951 30.8683C127.529 29.4259 129.245 28.1746 131.116 27.1471C131.521 26.9249 131.979 26.7937 132.423 26.6557C132.667 26.5799 132.918 26.6072 133.139 26.7975C133.769 27.3427 134.406 28.6463 134.415 29.5958Z" fill="#C80835"/>
<path d="M136.966 18.7326C136.934 19.3112 136.677 19.663 136.32 19.9573C135.22 20.862 134.12 21.7659 133.02 22.6699C132.429 23.1559 131.838 23.642 131.246 24.1259C130.573 24.6757 129.956 24.7295 129.283 24.1896C128.421 23.4995 127.606 22.7502 126.775 22.023C126.471 21.7568 126.511 21.4194 126.615 21.0796C126.964 19.9269 127.626 18.9813 128.505 18.1737C129.978 16.8185 131.78 16.1648 133.681 15.728C134.176 15.6143 134.68 15.5377 135.182 15.4573C135.636 15.3845 135.882 15.4975 136.044 15.9207C136.355 16.7351 136.637 17.5617 136.92 18.3875C136.967 18.5233 136.96 18.6787 136.966 18.7326Z" fill="#C80835"/>
<path d="M14.4722 47.6692C13.0808 47.6328 11.8071 47.6009 10.5326 47.566C9.82182 47.5463 9.30118 47.2544 8.92616 46.6098C7.96485 44.9551 7.3197 43.1775 6.77944 41.353C5.93433 38.5009 5.37973 35.5949 5.18505 32.6238C5.09073 31.1882 5.2258 29.7686 5.57063 28.3695C6.07921 26.3068 7.22312 24.6301 8.75563 23.2249C10.0097 22.0753 11.3566 21.028 12.6378 19.9064C14.3922 18.37 16.391 17.187 18.3076 15.8865C22.4622 13.0678 26.6395 10.2824 30.8061 7.48184C31.5396 6.98892 31.6905 7.01167 31.9629 7.84963C32.1591 8.45327 32.3228 9.08497 32.3726 9.71439C32.479 11.0536 32.5575 12.3997 32.5424 13.7419C32.5258 15.2381 32.1281 16.6501 31.2657 17.9014C30.9299 18.389 30.4983 18.6825 29.9135 18.8804C28.7107 19.2884 27.5253 19.7715 26.3769 20.3159C22.7391 22.0412 19.2576 24.0394 16.0183 26.4501C14.2843 27.7401 12.6725 29.1559 11.4102 30.9266C11.134 31.3141 10.9446 31.7888 10.8178 32.2522C10.633 32.9279 10.9989 33.5383 11.6629 33.7658C11.9203 33.8538 12.2002 33.9016 12.4726 33.9167C15.0404 34.0631 17.6044 34.0752 20.1699 33.8212C24.0241 33.4397 27.8196 32.7519 31.5531 31.7191C31.6754 31.6849 31.7976 31.6425 31.9229 31.6273C32.4586 31.5644 32.7137 31.7312 32.8525 32.2673C32.9106 32.491 32.9347 32.7314 32.928 32.9627C32.888 34.2254 32.6993 35.469 32.3907 36.693C32.3394 36.8955 32.0496 37.65 31.944 37.8343C30.8363 39.7794 30.081 41.2218 28.7809 43.0949C27.7532 44.5206 26.6802 45.5345 25.1477 46.1912C23.9049 46.7235 22.5935 46.9723 21.2753 47.2036C18.9844 47.6062 16.6679 47.6077 14.4722 47.6692Z" fill="#C80835"/>
<path d="M44.1831 41.067C43.8669 41.334 43.6051 41.544 43.3553 41.767C41.8651 43.1016 40.3869 44.45 38.8838 45.7702C38.3254 46.2601 37.7429 46.7371 37.1151 47.1276C35.9546 47.8496 35.3977 47.6881 34.6341 46.6431C33.909 45.6512 33.6366 44.5212 33.6728 43.3246C33.7332 41.2877 34.0976 39.3008 34.7609 37.3686C35.6354 34.8206 37.0412 32.5744 38.511 30.3426C40.3627 27.5292 42.9177 25.5871 45.8008 23.9991C45.9865 23.8967 46.1781 23.8012 46.3766 23.7276C46.858 23.5494 47.3039 23.626 47.6699 23.993C49.0862 25.4127 50.4082 26.9111 51.4449 28.6432C51.7362 29.13 51.7181 29.6715 51.6615 30.1993C51.5129 31.5764 51.322 32.9498 51.1673 34.3262C50.916 36.5602 50.8994 38.7988 51.1741 41.0299C51.4397 43.1881 51.7619 45.3387 52.0599 47.4932C52.1535 48.1666 51.9226 48.4737 51.2442 48.476C50.2309 48.479 49.2688 48.2257 48.3603 47.7783C47.9891 47.5955 47.7197 47.3036 47.516 46.935C46.5599 45.1992 45.5948 43.4679 44.6275 41.7381C44.5068 41.5243 44.3566 41.3279 44.1831 41.067ZM38.0508 38.2771C38.1451 38.6745 38.3843 38.7564 38.6944 38.4834C38.917 38.2877 39.1373 38.0928 39.3539 37.8896C40.5159 36.7961 41.6719 35.7473 42.8045 34.5673C43.2889 34.1047 43.3214 33.7657 42.9969 33.2137C42.6943 32.698 42.2205 32.3696 41.7089 32.1035C41.0539 31.763 40.7347 31.838 40.2986 32.4371C39.5063 33.5261 38.834 34.6894 38.3828 35.9619C38.1783 36.5375 37.9323 37.496 38.0508 38.2771Z" fill="#C80835"/>
<path d="M83.7876 39.2053C84.2162 39.2008 83.9778 39.7172 83.9204 39.8931C83.3371 41.6987 82.4452 43.455 81.8703 45.2629C81.6469 45.9644 81.2191 46.4292 80.5272 46.6886C78.9079 47.2953 77.2471 47.2445 75.5614 47.1239C72.2677 46.888 69.2646 43.7553 68.6677 40.722C68.4036 39.3805 68.501 38.0436 68.6821 36.7089C68.9922 34.4278 69.8615 32.3628 71.0786 30.4245C72.273 28.5219 73.6237 26.7496 75.1705 25.1207C76.1183 24.1228 77.2101 23.4736 78.5917 23.3417C80.0359 23.2036 81.4741 23.1005 82.8723 23.6298C83.0512 23.6973 83.2315 23.7625 83.4035 23.8437C84.7685 24.4898 85.2084 25.528 84.9164 26.8604C84.5776 28.4058 84.0268 29.8619 82.9689 31.0479C81.5805 32.604 80.1272 34.1025 78.6936 35.6184C78.3427 35.9892 77.9579 36.3282 77.5919 36.6839C77.0939 37.1669 77.069 37.4096 77.5542 37.9169C78.3752 38.7746 79.3689 39.3524 80.5626 39.4245C81.3172 39.47 82.0815 39.3608 82.8414 39.3123C83.1274 39.2918 83.4118 39.2478 83.7876 39.2053ZM75.9711 33.6915C76.2571 33.5504 76.571 33.3229 76.7347 33.2122C78.2657 32.1816 79.5583 30.8962 80.672 29.4266C80.9708 29.033 80.9482 28.8108 80.5475 28.5249C80.3476 28.3823 80.0971 28.2853 79.8556 28.2314C78.9879 28.0396 78.3238 28.3649 77.8341 29.0921C77.0539 30.2494 76.4525 31.4877 76.1386 32.855C76.0979 33.0302 75.99 33.3783 75.9711 33.6915Z" fill="#C80835"/>
<path d="M75.8379 14.1514C75.4131 13.3111 74.9128 12.7295 74.694 12.4853C74.6253 12.4095 74.5499 12.3374 74.4714 12.2722C73.9847 11.8657 73.6663 11.5836 73.3305 11.2568C73.2347 11.1635 73.1283 11.0809 73.0189 11.0058C72.0628 10.3824 72.6589 10.6441 71.2924 9.97673C70.4775 9.58087 69.8844 9.3329 68.8944 9.06065C68.8326 9.04321 68.7639 9.02653 68.699 9.01591C68.247 8.93325 67.9626 8.85742 67.6713 8.83315C67.2193 8.79524 66.1743 8.94994 65.794 9.19488C65.1194 9.63547 64.0879 10.999 63.6465 11.636C63.2383 12.2267 62.2543 14.03 61.244 16.6471C59.9589 19.8533 58.7931 23.0042 58.1314 26.5396C57.6538 26.8513 57.0214 27.2153 56.6932 27.4526C56.0254 27.9349 55.2852 28.4218 54.511 29.0315C53.7331 29.6442 53.5173 29.9991 53.2539 30.9008C52.9868 31.8024 53.4184 32.4463 54.1617 33.1417C54.2552 33.2296 54.3397 33.3108 54.4242 33.3904C54.425 33.3912 54.4242 33.3919 54.425 33.3919C54.428 33.3942 54.4303 33.3965 54.4333 33.3987C54.5676 33.5246 54.7027 33.6437 54.8596 33.765C55.7681 34.5689 55.6979 34.5992 57.361 33.5641C57.3957 33.5421 57.4334 33.5193 57.4681 33.4973C57.5044 33.4814 57.5383 33.47 57.5708 33.4594C57.5994 34.7129 57.699 36.0302 57.8733 37.4157C57.8952 37.6204 57.9201 37.8153 57.9503 37.9821C57.9601 38.0345 57.9692 38.0883 57.979 38.1414C58.1284 39.1879 58.308 40.2624 58.5494 41.3946L58.5585 41.3218C58.9833 43.4369 59.5636 45.4745 60.7595 47.0048C61.3134 47.7161 62.0264 47.9975 63.0572 47.9346C63.4095 47.9148 64.6063 47.6123 64.9473 47.5402C65.5442 47.4143 65.5947 46.8873 65.3669 46.433C64.5867 44.8739 64.0275 42.9659 63.7333 41.3529C63.2556 37.7668 63.4533 33.5724 64.2788 29.4311C65.2582 28.8866 66.0829 28.4612 66.63 28.239C66.8632 28.1639 67.0858 28.0942 67.2918 28.0312C67.3981 28.0024 67.5053 27.9698 67.6117 27.9342C68.0003 27.8181 68.2968 27.7347 68.4138 27.7029C68.4545 27.6922 68.4892 27.6824 68.527 27.6649C68.736 27.5861 68.9548 27.4996 69.188 27.4071C69.4 27.3176 69.5818 27.1629 69.7192 26.9733C69.9244 26.6912 70.1923 26.4084 70.3047 26.1096C70.5786 25.3725 70.9416 24.6809 71.0962 23.9097C71.1 23.8786 71.1068 23.8513 71.1136 23.8202C71.2713 22.9322 70.4835 22.1746 69.606 22.3604C69.5411 22.374 69.483 22.3846 69.4241 22.3945C68.7888 22.5143 66.8179 22.9397 66.0746 23.102C66.3976 22.2406 66.7522 21.4026 67.1325 20.5881C67.9543 19.1556 68.499 17.8794 69.6943 16.5932C70.2972 15.9388 71.4652 15.2745 72.3594 15.4057C72.7774 15.4678 73.0483 15.6878 73.6678 16.848C74.0443 17.554 74.6985 18.0841 75.4802 18.2525C75.7096 18.301 75.8711 18.304 75.9458 18.2388C76.4989 17.7838 76.4302 15.3154 75.8379 14.1514Z" fill="#C80835"/>
<path d="M13.4523 52.0485H11.6565V53.2148H13.3399V54.0916H11.6565V56.3933H10.6144V51.1717H13.4523V52.0485Z" fill="black"/>
<path d="M18.3027 51.1718C19.0399 51.1718 19.4172 51.3597 19.6655 51.563C20.0745 51.8997 20.1944 52.3455 20.1944 52.7375C20.1944 53.2466 19.9862 53.6923 19.5689 53.9664C19.4323 54.0607 19.2399 54.1462 18.9834 54.1934L20.6509 56.3934H19.3523L17.9255 54.2958H17.7972V56.3934H16.7551V51.1718H18.3027ZM17.7979 53.5752H18.0945C18.2952 53.5752 19.1207 53.5516 19.1207 52.7846C19.1207 52.0095 18.3027 52.0021 18.1103 52.0021H17.7979V53.5752Z" fill="black"/>
<path d="M26.7296 52.0486H24.8054V53.2149H26.6496V54.0917H24.8054V55.5166H26.7296V56.3934H23.7634V51.1718H26.7296V52.0486Z" fill="black"/>
<path d="M32.7747 52.3617C32.4623 51.9542 32.0933 51.9152 31.9009 51.9152C31.3395 51.9152 31.163 52.2592 31.163 52.526C31.163 52.6512 31.203 52.7684 31.3312 52.8781C31.4595 52.9953 31.6361 53.0579 31.9726 53.1758C32.3899 53.3165 32.7823 53.4573 33.0547 53.7004C33.2954 53.9119 33.5119 54.264 33.5119 54.7967C33.5119 55.8142 32.7581 56.5112 31.6519 56.5112C30.6657 56.5112 30.0885 55.924 29.8078 55.5247L30.4892 54.8903C30.7457 55.3994 31.2347 55.5873 31.6112 55.5873C32.0843 55.5873 32.4367 55.3059 32.4367 54.8675C32.4367 54.6796 32.3725 54.5308 32.2284 54.3974C32.0277 54.2176 31.707 54.1159 31.4029 54.0135C31.1222 53.92 30.7857 53.7947 30.5133 53.5597C30.3367 53.4108 30.0885 53.1213 30.0885 52.5886C30.0885 51.8216 30.6174 51.0546 31.8044 51.0546C32.1409 51.0546 32.7747 51.1172 33.3195 51.6654L32.7747 52.3617Z" fill="black"/>
<path d="M37.8741 53.1913H40.1348V51.1718H41.1768V56.3934H40.1348V54.0681H37.8741V56.3934H36.832V51.1718H37.8741V53.1913Z" fill="black"/>
<path d="M49.7962 51.1718H50.55L51.9693 54.491L53.4528 51.1718H54.2066L55.1045 56.3934H54.0459L53.5652 53.1758L52.1301 56.3934H51.7777L50.4066 53.1758L49.8619 56.3934H48.8032L49.7962 51.1718Z" fill="black"/>
<path d="M63.9073 53.7859C63.9073 55.3752 62.737 56.5105 61.0536 56.5105C59.3701 56.5105 58.1998 55.3752 58.1998 53.7859C58.1998 52.1967 59.3701 51.0539 61.0536 51.0539C62.737 51.0539 63.9073 52.1974 63.9073 53.7859ZM62.8336 53.7859C62.8336 52.7294 62.0956 51.9778 61.0536 51.9778C60.0115 51.9778 59.2736 52.7294 59.2736 53.7859C59.2736 54.8425 60.0115 55.5866 61.0536 55.5866C62.0956 55.5866 62.8336 54.8432 62.8336 53.7859Z" fill="black"/>
<path d="M68.6709 51.1718C69.4164 51.1718 70.0661 51.2499 70.6592 51.6809C71.3088 52.1583 71.6854 52.918 71.6854 53.7866C71.6854 54.6553 71.3164 55.4068 70.6109 55.8924C69.9854 56.3227 69.4006 56.3934 68.6543 56.3934H67.2757V51.1718H68.6709ZM68.3178 55.5166H68.6385C68.9033 55.5166 69.4806 55.5012 69.9454 55.1725C70.3702 54.8749 70.6109 54.3429 70.6109 53.7866C70.6109 53.2385 70.3785 52.7065 69.9537 52.3934C69.5205 52.0802 68.9916 52.0493 68.6392 52.0493H68.3185V55.5166H68.3178Z" fill="black"/>
<path d="M78.0191 52.0486H76.095V53.2149H77.9392V54.0917H76.095V55.5166H78.0191V56.3934H75.053V51.1718H78.0191V52.0486Z" fill="black"/>
<path d="M82.9828 51.1718C83.72 51.1718 84.0973 51.3597 84.3456 51.563C84.7545 51.8997 84.8745 52.3455 84.8745 52.7375C84.8745 53.2466 84.6663 53.6923 84.249 53.9664C84.1124 54.0607 83.92 54.1462 83.6634 54.1934L85.331 56.3934H84.0324L82.6055 54.2958H82.4773V56.3934H81.4352V51.1718H82.9828ZM82.4773 53.5752H82.7738C82.9745 53.5752 83.8 53.5516 83.8 52.7846C83.8 52.0095 82.9821 52.0021 82.7897 52.0021H82.4773V53.5752Z" fill="black"/>
<path d="M88.4429 56.3926V51.171H89.1643L92.4194 54.6546V51.171H93.4615V56.3926H92.7401L89.485 52.901V56.3926H88.4429Z" fill="black"/>
<path d="M102.081 51.1718H102.835L104.254 54.491L105.737 51.1718H106.491L107.389 56.3934H106.331L105.85 53.1758L104.415 56.3934H104.062L102.691 53.1758L102.146 56.3934H101.088L102.081 51.1718Z" fill="black"/>
<path d="M113.706 52.0486H111.782V53.2149H113.626V54.0917H111.782V55.5166H113.706V56.3934H110.74V51.1718H113.706V52.0486Z" fill="black"/>
<path d="M118.469 53.6378L116.874 51.1718H118.125L119.063 52.792L120.049 51.1718H121.3L119.657 53.6378L121.484 56.3934H120.233L119.063 54.4829L117.828 56.3934H116.578L118.469 53.6378Z" fill="black"/>
<path d="M125.701 51.1718V56.3934H124.659V51.1718H125.701Z" fill="black"/>
<path d="M133.205 56.2048C132.885 56.3691 132.46 56.5098 131.883 56.5098C130.945 56.5098 130.375 56.1967 129.927 55.7819C129.31 55.2027 129.069 54.5529 129.069 53.7859C129.069 52.8384 129.47 52.1576 129.927 51.7428C130.464 51.2499 131.13 51.0539 131.891 51.0539C132.268 51.0539 132.716 51.1165 133.205 51.3751V52.565C132.716 52.0169 132.107 51.9778 131.914 51.9778C130.84 51.9778 130.143 52.8391 130.143 53.8021C130.143 54.9603 131.056 55.5866 131.954 55.5866C132.452 55.5866 132.892 55.3752 133.205 55.0149V56.2048Z" fill="black"/>
<path d="M139.74 55.297H137.583L137.11 56.3926H135.98L138.281 51.171H139.099L141.336 56.3926H140.213L139.74 55.297ZM139.436 54.4674L138.674 52.5886L137.912 54.4674H139.436Z" fill="black"/>
<path d="M144.367 56.3926V51.171H145.088L148.344 54.6546V51.171H149.386V56.3926H148.664L145.409 52.901V56.3926H144.367Z" fill="black"/>
</svg>
