<svg width="160" height="65" viewBox="0 0 160 65" fill="none" xmlns="http://www.w3.org/2000/svg">
<path fill-rule="evenodd" clip-rule="evenodd" d="M18.4611 50.0627C10.9932 50.6299 3.94031 46.397 0.949511 39.4423L0.889622 39.2477L0.470398 39.3824L0.515315 39.592C2.34193 47.5273 9.52863 52.9623 17.5388 53.4264H18.8161C18.6955 53.3697 18.5786 53.2999 18.4671 53.2168C17.5987 52.558 17.419 51.3303 18.0778 50.4469C18.1904 50.2985 18.3197 50.1701 18.4611 50.0627Z" fill="white"/>
<path fill-rule="evenodd" clip-rule="evenodd" d="M31.8523 21.9996V21.9547H38.485L31.1635 40.8048H24.6506L30.3101 26.0272L24.3811 26.0721C23.4977 26.4314 22.824 27.18 22.5694 28.1083L22.0754 29.351H28.9925L27.3606 33.5732H20.3985L17.5837 40.7599H17.419L11.3402 40.8048H10.9809L11.1156 40.4754L17.1046 25.2486C18.1227 23.6316 19.7397 22.4937 21.5962 22.0745H31.7624" fill="url(#paint0_linear_6_260)"/>
<path fill-rule="evenodd" clip-rule="evenodd" d="M11.3402 40.5653L17.3292 25.3385C18.3024 23.7814 19.8744 22.6734 21.6711 22.2692H32.002V22.2242H38.1107L30.9988 40.5653H25.0099L30.6695 25.7876L24.3512 25.8326C23.4378 26.0871 22.794 26.8656 22.3449 28.0035L21.716 29.5756H28.6482L27.2109 33.3187H20.2488L17.419 40.5204L11.3103 40.5653" fill="#E42528"/>
<path fill-rule="evenodd" clip-rule="evenodd" d="M39.6378 21.9547H46.2705L38.9341 40.8048H32.4362L39.6378 21.9547Z" fill="url(#paint1_linear_6_260)"/>
<path fill-rule="evenodd" clip-rule="evenodd" d="M39.8026 22.1943L32.7806 40.5653H38.7695L45.9262 22.1943H39.8176" fill="#E42528"/>
<path fill-rule="evenodd" clip-rule="evenodd" d="M57.2752 29.3061C58.1136 28.5575 59.8654 26.9405 58.443 25.9973H52.499L46.6898 40.6252L46.6299 40.7749H40.2068L40.3415 40.4455C42.7371 34.3219 45.1327 28.1982 47.5282 22.0745L47.5881 21.9248H64.4469H64.5068C68.4894 24.3653 64.956 28.9917 62.8449 31.4172C63.309 32.5252 63.2042 33.7828 62.5604 34.801C61.7818 36.7174 61.0033 38.6339 60.2247 40.5503L60.1648 40.7H53.7417L53.8615 40.3707C54.5951 38.4243 55.3288 36.4779 56.0774 34.5165C56.4367 33.723 56.1972 33.5882 55.3438 33.4535H50.2981L50.4478 33.1091C50.9868 31.8814 51.4061 30.5938 51.9451 29.366L52.0049 29.2163H52.1846C53.8914 29.2163 55.5683 29.2163 57.2902 29.2163" fill="url(#paint2_linear_6_260)"/>
<path fill-rule="evenodd" clip-rule="evenodd" d="M40.5511 40.5653C42.9467 34.4417 45.3423 28.318 47.7378 22.1943H64.387C67.4114 24.0509 66.1388 27.3598 62.5754 31.4472C63.0844 32.5252 62.9946 33.7979 62.3508 34.801L60.0151 40.5653H54.0861L56.287 34.7261C56.6014 34.0524 56.6913 33.5433 55.3438 33.3337H50.6574C51.1815 32.121 51.6157 30.8034 52.1547 29.5906H57.35C59.1168 28.0186 59.8953 26.6561 58.5029 25.7877H52.3194L46.4502 40.5803L40.5511 40.5653Z" fill="#E42528"/>
<path fill-rule="evenodd" clip-rule="evenodd" d="M8.31584 46.8087C1.41362 42.5566 -1.3862 34.0224 0.650035 26.3117C2.2371 20.0383 6.96834 15.0376 13.1519 13.1211C16.0715 12.2527 19.1707 12.2228 22.1053 13.0163C25.519 13.9446 28.5434 15.9359 30.7443 18.7058L30.8791 18.8705L30.5946 19.1699L30.4299 19.0352C22.7641 13.3457 11.9242 14.9328 6.23469 22.5836C4.88719 24.3952 3.89902 26.4614 3.34504 28.6623C1.63821 35.1004 3.67444 41.9577 8.63026 46.4045L8.79496 46.5542L8.52545 46.9135L8.34579 46.8087" fill="white"/>
<path fill-rule="evenodd" clip-rule="evenodd" d="M8.45059 46.5991C2.01251 42.6614 -1.28139 34.4416 0.859649 26.3865C3.41991 16.6695 12.9123 10.7854 22.0155 13.2708C25.3842 14.1841 28.3637 16.1604 30.5347 18.8854C22.7641 13.1061 11.7744 14.7381 6.01011 22.5087C4.64763 24.3503 3.65946 26.4314 3.09052 28.6473C1.35373 35.1752 3.41991 42.1224 8.45059 46.629" fill="#2F358B"/>
<path fill-rule="evenodd" clip-rule="evenodd" d="M17.5238 53.1719C9.16928 52.6928 2.44673 46.9435 0.724915 39.5322L0.739887 39.5172C3.72182 46.4703 10.7323 50.7422 18.1955 50.3056C18.1545 50.3505 18.1152 50.3976 18.0778 50.447C17.4228 51.3252 17.5966 52.5439 18.4521 53.2054C18.1414 53.2036 17.8311 53.1924 17.5238 53.1719Z" fill="#E42528"/>
<path fill-rule="evenodd" clip-rule="evenodd" d="M74.5981 26.0572C73.7147 26.4165 73.041 27.1652 72.7865 28.0934L67.8606 40.6252L67.8007 40.775H67.636L61.5273 40.8199H61.168L61.3027 40.4905L67.2916 25.2637C68.2948 23.6017 69.9417 22.4339 71.8432 22.0297H71.9031L88.3277 21.9847H88.687L88.5373 22.3291L86.9951 25.8326L86.9353 25.9823H86.7706C82.7131 26.0123 78.6556 26.0422 74.5981 26.0572Z" fill="url(#paint3_linear_6_260)"/>
<path fill-rule="evenodd" clip-rule="evenodd" d="M61.5573 40.5653L67.5462 25.3385C68.5194 23.7664 70.0915 22.6734 71.9031 22.2692L88.3277 22.2242L86.7706 25.7128L74.5682 25.8026C73.6549 26.0571 73.0111 26.8357 72.5619 27.9736L67.636 40.4904L61.5273 40.5503" fill="url(#paint4_linear_6_260)"/>
<path fill-rule="evenodd" clip-rule="evenodd" d="M73.0859 29.3361H85.9172L84.3151 33.5582H71.424L73.0859 29.3361Z" fill="url(#paint5_linear_6_260)"/>
<path fill-rule="evenodd" clip-rule="evenodd" d="M73.2506 29.5757L71.7833 33.3188H84.1654L85.5878 29.5757H73.2506Z" fill="url(#paint6_linear_6_260)"/>
<path fill-rule="evenodd" clip-rule="evenodd" d="M89.9597 21.9547H96.5924L89.256 40.8048H82.7581L89.9597 21.9547Z" fill="url(#paint7_linear_6_260)"/>
<path fill-rule="evenodd" clip-rule="evenodd" d="M90.1244 22.1943L83.1024 40.5653H89.0913L96.278 22.1943H90.1693" fill="url(#paint8_linear_6_260)"/>
<path fill-rule="evenodd" clip-rule="evenodd" d="M109.034 25.9074L102.701 25.9972L98.5987 36.7773H105.037C105.71 36.1035 107.552 34.1871 106.07 33.5433H100.515L100.665 33.2139C101.204 31.9861 101.623 30.6985 102.162 29.4708L102.222 29.3211H102.387H107.881C108.78 28.4527 109.918 27.1201 109.049 25.9373L109.034 25.9074ZM113.227 31.4921C113.421 35.9089 111.954 39.4423 107.462 40.7898H90.4987L90.6334 40.4604C93.0439 34.3368 95.4395 28.2281 97.8351 22.1044L97.895 21.9547H114.589H114.634C119.096 23.9909 115.173 29.0815 113.182 31.4471" fill="url(#paint9_linear_6_260)"/>
<path fill-rule="evenodd" clip-rule="evenodd" d="M102.536 25.7727L109.154 25.6829C110.008 26.7459 109.603 28.0335 107.971 29.5757H102.387C101.863 30.7735 101.414 32.106 100.889 33.3187H106.13C107.492 33.8577 106.983 35.0705 105.157 37.0169H98.2693C99.6917 33.2439 101.114 29.5008 102.536 25.7727ZM97.9998 22.1943C95.6043 28.303 93.2087 34.4267 90.8431 40.5504H107.402C111.505 39.3226 113.227 36.1635 112.987 31.4023C116.55 27.1502 117.958 23.7515 114.574 22.1943H98.0447" fill="url(#paint10_linear_6_260)"/>
<path fill-rule="evenodd" clip-rule="evenodd" d="M134.188 31.4921C134.652 32.6001 134.547 33.8578 133.903 34.8759L131.568 40.6252L131.508 40.7749H125.085L125.204 40.4456C125.938 38.4992 126.672 36.5528 127.42 34.5914C127.78 33.7979 127.51 33.6631 126.672 33.5284H121.701L121.851 33.184C122.39 31.9563 122.824 30.6687 123.363 29.4409L123.423 29.2912H123.572H128.603C129.442 28.5426 131.193 26.9256 129.771 25.9823H123.827L118.018 40.6103L117.958 40.76H111.535L111.669 40.4306L118.856 22.0895L118.916 21.9398H135.775H135.835C139.817 24.3803 136.284 29.0067 134.173 31.4322" fill="url(#paint11_linear_6_260)"/>
<path fill-rule="evenodd" clip-rule="evenodd" d="M111.864 40.5653L119.066 22.1943H135.7C138.724 24.0509 137.452 27.3598 133.888 31.4472C134.397 32.5252 134.323 33.7979 133.679 34.801L131.343 40.5653H125.444L127.645 34.7261C127.959 34.0524 128.034 33.5433 126.687 33.3337H122.045C122.569 32.121 123.033 30.8034 123.557 29.5906H128.678C130.445 28.0186 131.223 26.6561 129.831 25.7877H123.662L117.793 40.5803L111.864 40.5653Z" fill="url(#paint12_linear_6_260)"/>
<path fill-rule="evenodd" clip-rule="evenodd" d="M137.197 29.6206L135.955 33.3487L146.046 33.3038L147.648 29.5757L137.197 29.6206Z" fill="url(#paint13_linear_6_260)"/>
<path fill-rule="evenodd" clip-rule="evenodd" d="M141.914 33.5732L139.099 40.7599H138.934L132.825 40.8048H132.466L132.601 40.4754L138.59 25.2187C139.608 23.6017 141.225 22.4638 143.081 22.0445H143.141L159.566 21.9996H160L152.664 40.8048H146.166L151.84 25.9972L145.896 26.0421C145.013 26.4015 144.339 27.1501 144.084 28.0784L143.575 29.366H150.508L148.891 33.6181H141.914" fill="url(#paint14_linear_6_260)"/>
<path fill-rule="evenodd" clip-rule="evenodd" d="M141.749 33.3337H148.726L150.163 29.5757H143.231L143.875 27.9587C144.324 26.8208 144.953 26.0422 145.881 25.7877L152.214 25.7428L146.54 40.5653H152.529L159.671 22.2393H159.626L143.201 22.2842C141.404 22.6735 139.832 23.7814 138.844 25.3535L132.885 40.5504L138.994 40.5054L141.809 33.3337" fill="url(#paint15_linear_6_260)"/>
<defs>
<linearGradient id="paint0_linear_6_260" x1="24.7364" y1="37.1625" x2="24.7364" y2="24.4565" gradientUnits="userSpaceOnUse">
<stop stop-color="white"/>
<stop offset="0.07" stop-color="white"/>
<stop offset="1" stop-color="white"/>
</linearGradient>
<linearGradient id="paint1_linear_6_260" x1="39.3519" y1="41.2468" x2="39.3519" y2="19.776" gradientUnits="userSpaceOnUse">
<stop stop-color="white"/>
<stop offset="0.07" stop-color="white"/>
<stop offset="1" stop-color="white"/>
</linearGradient>
<linearGradient id="paint2_linear_6_260" x1="53.2473" y1="38.3698" x2="53.2473" y2="25.4511" gradientUnits="userSpaceOnUse">
<stop stop-color="white"/>
<stop offset="0.07" stop-color="white"/>
<stop offset="1" stop-color="white"/>
</linearGradient>
<linearGradient id="paint3_linear_6_260" x1="74.9497" y1="73.6463" x2="74.9497" y2="-12.7073" gradientUnits="userSpaceOnUse">
<stop stop-color="white"/>
<stop offset="0.58" stop-color="white"/>
<stop offset="1" stop-color="white"/>
</linearGradient>
<linearGradient id="paint4_linear_6_260" x1="74.9356" y1="100.268" x2="74.9356" y2="-35.5639" gradientUnits="userSpaceOnUse">
<stop stop-color="#5DBEBF"/>
<stop offset="1" stop-color="#2F358B"/>
</linearGradient>
<linearGradient id="paint5_linear_6_260" x1="78.6742" y1="33.0222" x2="78.6742" y2="28.6629" gradientUnits="userSpaceOnUse">
<stop stop-color="white"/>
<stop offset="0.58" stop-color="white"/>
<stop offset="1" stop-color="white"/>
</linearGradient>
<linearGradient id="paint6_linear_6_260" x1="78.6745" y1="39.1153" x2="78.6745" y2="25.5112" gradientUnits="userSpaceOnUse">
<stop stop-color="#5DBEBF"/>
<stop offset="1" stop-color="#2F358B"/>
</linearGradient>
<linearGradient id="paint7_linear_6_260" x1="89.6706" y1="38.3476" x2="89.6706" y2="22.74" gradientUnits="userSpaceOnUse">
<stop stop-color="white"/>
<stop offset="0.58" stop-color="white"/>
<stop offset="1" stop-color="white"/>
</linearGradient>
<linearGradient id="paint8_linear_6_260" x1="89.6808" y1="39.7215" x2="89.6808" y2="22.9115" gradientUnits="userSpaceOnUse">
<stop stop-color="#5DBEBF"/>
<stop offset="1" stop-color="#2F358B"/>
</linearGradient>
<linearGradient id="paint9_linear_6_260" x1="103.592" y1="37.8109" x2="103.592" y2="25.6303" gradientUnits="userSpaceOnUse">
<stop stop-color="white"/>
<stop offset="0.58" stop-color="white"/>
<stop offset="1" stop-color="white"/>
</linearGradient>
<linearGradient id="paint10_linear_6_260" x1="103.675" y1="41.6796" x2="103.675" y2="23.8026" gradientUnits="userSpaceOnUse">
<stop stop-color="#5DBEBF"/>
<stop offset="1" stop-color="#2F358B"/>
</linearGradient>
<linearGradient id="paint11_linear_6_260" x1="124.589" y1="38.3699" x2="124.589" y2="25.4512" gradientUnits="userSpaceOnUse">
<stop stop-color="white"/>
<stop offset="0.58" stop-color="white"/>
<stop offset="1" stop-color="white"/>
</linearGradient>
<linearGradient id="paint12_linear_6_260" x1="124.631" y1="40.9363" x2="124.631" y2="22.9797" gradientUnits="userSpaceOnUse">
<stop stop-color="#5DBEBF"/>
<stop offset="1" stop-color="#2F358B"/>
</linearGradient>
<linearGradient id="paint13_linear_6_260" x1="141.804" y1="37.1642" x2="141.804" y2="25.4861" gradientUnits="userSpaceOnUse">
<stop stop-color="#5DBEBF"/>
<stop offset="1" stop-color="#2F358B"/>
</linearGradient>
<linearGradient id="paint14_linear_6_260" x1="146.242" y1="37.8548" x2="146.242" y2="25.1518" gradientUnits="userSpaceOnUse">
<stop stop-color="white"/>
<stop offset="0.58" stop-color="white"/>
<stop offset="1" stop-color="white"/>
</linearGradient>
<linearGradient id="paint15_linear_6_260" x1="146.278" y1="37.9679" x2="146.278" y2="25.0262" gradientUnits="userSpaceOnUse">
<stop stop-color="#5DBEBF"/>
<stop offset="1" stop-color="#2F358B"/>
</linearGradient>
</defs>
</svg>
