<svg width="160" height="64" viewBox="0 0 160 64" fill="none" xmlns="http://www.w3.org/2000/svg">
<g clip-path="url(#clip0_23_918)">
<path d="M159.974 22.3177H156.698L157.858 12.8512H148.404L147.225 22.3177H141.08C147.257 24.7146 146.052 31.8798 146.052 31.8798L143.158 55.5876C143.292 55.5876 143.967 55.5876 144.165 55.5493C144.363 55.5111 145.038 55.4537 145.134 55.4409C145.383 55.4027 145.988 55.2816 146.052 55.2624C146.307 55.2051 146.874 55.033 146.919 55.0202C147.18 54.9373 147.709 54.7333 147.729 54.727C151.075 53.3436 153.262 50.3284 153.778 46.1147L155.525 31.8798H158.827L160 22.3177H159.974Z" fill="#DB0029"/>
<path d="M9.9956 42.5385L12.4818 22.3177H3.02799L0.108355 46.0956C-0.618368 52.005 2.49889 55.5685 8.39554 55.5685H12.7304L13.8651 46.0956H13.081C10.7414 46.0956 9.67686 44.8844 9.9701 42.5385" fill="#DB0029"/>
<path d="M47.2306 31.8799C47.9637 25.9004 44.8464 22.3177 38.9434 22.3177H16.8485L15.6755 31.8799H16.4533C18.7992 31.8799 19.8701 33.021 19.5705 35.437L17.0971 55.5876H26.5509L29.4641 31.8799H34.2261C36.5656 31.8799 37.6366 33.021 37.337 35.437L36.0238 46.1147C35.297 52.0114 38.4015 55.5621 44.2727 55.5812L47.2306 31.8799Z" fill="#DB0029"/>
<path d="M76.9752 22.3687C69.1789 22.3687 68.4841 29.2407 68.2928 30.8152L65.2839 55.5684H74.7313L77.2047 35.4178C77.5681 32.7595 77.6956 31.8989 78.9769 31.8479C79.1044 31.8479 81.3547 31.8479 82.3619 31.8479C82.3619 31.8479 82.9484 26.5696 86.9199 23.1719C86.9772 23.1336 87.7231 22.579 88.0418 22.3623L76.9752 22.3687Z" fill="#DB0029"/>
<path d="M96.0994 50.5132H95.4619C94.6352 50.5296 93.8148 50.3655 93.0579 50.0323C92.3011 49.6991 91.6261 49.2048 91.0799 48.584C90.5336 47.9631 90.1294 47.2306 89.8954 46.4375C89.6613 45.6444 89.6031 44.8098 89.7247 43.9918L90.9614 33.9898C91.2141 32.2066 92.0879 30.5697 93.429 29.3675C94.77 28.1652 96.4922 27.4747 98.2923 27.4175H98.9298C99.7591 27.4004 100.582 27.565 101.341 27.8997C102.1 28.2344 102.776 28.7311 103.323 29.3549C103.87 29.9787 104.273 30.7145 104.505 31.5108C104.738 32.307 104.793 33.1445 104.667 33.9643L103.443 43.9918C103.179 45.7679 102.299 47.3944 100.956 48.5867C99.6134 49.7789 97.8942 50.4609 96.0994 50.5132Z" fill="#DB0029"/>
<path d="M133.194 22.3177H110.8C112.429 23.6348 113.584 25.4478 114.089 27.4813C114.479 28.9067 114.583 30.395 114.395 31.8608L111.348 55.5685H120.795L123.709 31.8799H128.47C130.81 31.8799 131.881 33.021 131.588 35.437L130.274 46.1147C129.548 52.0241 132.665 55.5876 138.562 55.5876L141.475 31.8799C142.208 25.8812 139.097 22.3177 133.194 22.3177Z" fill="#DB0029"/>
<path d="M62.4918 22.3177L62.632 21.1383C62.9316 18.7096 64.3723 17.5685 66.731 17.5685H69.0833L70.2562 8.00635H64.3405C58.4183 8.00635 54.4213 11.5762 53.6819 17.5685L53.1018 22.2794H46.9374C53.1336 24.6827 51.9224 31.8416 51.9224 31.8416L49.0219 55.6258C54.4277 55.6258 58.2207 52.6233 59.3873 47.5808L61.2997 31.8416V31.7906H64.5253C64.5253 31.7906 65.2584 24.3767 68.2928 22.3049L62.4918 22.3177Z" fill="#DB0029"/>
</g>
<defs>
<clipPath id="clip0_23_918">
<rect width="160" height="47.6386" fill="white" transform="translate(0 8)"/>
</clipPath>
</defs>
</svg>
